<mxfile host="app.diagrams.net" agent="Mozilla/5.0 (Windows NT 10.0; Win64; x64) AppleWebKit/537.36 (KHTML, like Gecko) Chrome/135.0.0.0 Safari/537.36" version="26.2.14">
  <diagram id="C5RBs43oDa-KdzZeNtuy" name="Page-1">
    <mxGraphModel dx="7130" dy="5094" grid="1" gridSize="10" guides="1" tooltips="1" connect="1" arrows="1" fold="1" page="1" pageScale="1" pageWidth="827" pageHeight="1169" math="0" shadow="0">
      <root>
        <mxCell id="WIyWlLk6GJQsqaUBKTNV-0" />
        <mxCell id="WIyWlLk6GJQsqaUBKTNV-1" parent="WIyWlLk6GJQsqaUBKTNV-0" />
        <mxCell id="nM7WRYUH7kIRdtRXSgoU-373" value="" style="rounded=0;whiteSpace=wrap;html=1;fillColor=#f9f7ed;strokeColor=#36393d;" parent="WIyWlLk6GJQsqaUBKTNV-1" vertex="1">
          <mxGeometry x="5745" y="-180" width="1390" height="1180" as="geometry" />
        </mxCell>
        <mxCell id="nM7WRYUH7kIRdtRXSgoU-372" value="" style="rounded=0;whiteSpace=wrap;html=1;fillColor=#f9f7ed;strokeColor=#36393d;" parent="WIyWlLk6GJQsqaUBKTNV-1" vertex="1">
          <mxGeometry x="3169.44" y="-170" width="2370" height="1820" as="geometry" />
        </mxCell>
        <mxCell id="nM7WRYUH7kIRdtRXSgoU-371" value="" style="rounded=0;whiteSpace=wrap;html=1;fillColor=#f9f7ed;strokeColor=#36393d;" parent="WIyWlLk6GJQsqaUBKTNV-1" vertex="1">
          <mxGeometry x="10" y="-182.43" width="740" height="1352.43" as="geometry" />
        </mxCell>
        <mxCell id="nM7WRYUH7kIRdtRXSgoU-370" value="" style="rounded=0;whiteSpace=wrap;html=1;fillColor=#f9f7ed;strokeColor=#36393d;" parent="WIyWlLk6GJQsqaUBKTNV-1" vertex="1">
          <mxGeometry x="990" y="-180" width="2090" height="1740" as="geometry" />
        </mxCell>
        <mxCell id="5heF0MR8VSfm9OA-1lpz-0" value="&lt;h1&gt;AutenticaciÃ³n&lt;/h1&gt;" style="text;html=1;align=center;verticalAlign=middle;whiteSpace=wrap;rounded=0;" parent="WIyWlLk6GJQsqaUBKTNV-1" vertex="1">
          <mxGeometry x="240" y="-70" width="200" height="30" as="geometry" />
        </mxCell>
        <mxCell id="5heF0MR8VSfm9OA-1lpz-3" value="" style="edgeStyle=orthogonalEdgeStyle;rounded=0;orthogonalLoop=1;jettySize=auto;html=1;" parent="WIyWlLk6GJQsqaUBKTNV-1" source="5heF0MR8VSfm9OA-1lpz-1" target="5heF0MR8VSfm9OA-1lpz-2" edge="1">
          <mxGeometry relative="1" as="geometry" />
        </mxCell>
        <mxCell id="5heF0MR8VSfm9OA-1lpz-1" value="Inicio Registro" style="ellipse;whiteSpace=wrap;html=1;" parent="WIyWlLk6GJQsqaUBKTNV-1" vertex="1">
          <mxGeometry x="140" y="60" width="90" height="60" as="geometry" />
        </mxCell>
        <mxCell id="5heF0MR8VSfm9OA-1lpz-5" value="" style="edgeStyle=orthogonalEdgeStyle;rounded=0;orthogonalLoop=1;jettySize=auto;html=1;" parent="WIyWlLk6GJQsqaUBKTNV-1" source="5heF0MR8VSfm9OA-1lpz-2" edge="1">
          <mxGeometry relative="1" as="geometry">
            <mxPoint x="185" y="298" as="targetPoint" />
          </mxGeometry>
        </mxCell>
        <mxCell id="5heF0MR8VSfm9OA-1lpz-2" value="&lt;div&gt;&lt;b&gt;AuthController&lt;/b&gt;&lt;/div&gt;&lt;div&gt;&lt;br&gt;&lt;/div&gt;Solicitud de registro" style="rounded=1;whiteSpace=wrap;html=1;fontSize=12;glass=0;strokeWidth=1;shadow=0;" parent="WIyWlLk6GJQsqaUBKTNV-1" vertex="1">
          <mxGeometry x="125" y="160" width="120" height="80" as="geometry" />
        </mxCell>
        <mxCell id="nM7WRYUH7kIRdtRXSgoU-0" value="&lt;b&gt;AuthController&lt;/b&gt;&lt;div&gt;&lt;b&gt;&lt;br&gt;&lt;/b&gt;&lt;/div&gt;&lt;div&gt;Se devuelve al front.&lt;/div&gt;" style="ellipse;whiteSpace=wrap;html=1;" parent="WIyWlLk6GJQsqaUBKTNV-1" vertex="1">
          <mxGeometry x="130" y="725" width="120" height="80" as="geometry" />
        </mxCell>
        <mxCell id="nM7WRYUH7kIRdtRXSgoU-25" value="" style="edgeStyle=orthogonalEdgeStyle;rounded=0;orthogonalLoop=1;jettySize=auto;html=1;" parent="WIyWlLk6GJQsqaUBKTNV-1" source="nM7WRYUH7kIRdtRXSgoU-22" target="nM7WRYUH7kIRdtRXSgoU-0" edge="1">
          <mxGeometry relative="1" as="geometry" />
        </mxCell>
        <mxCell id="nM7WRYUH7kIRdtRXSgoU-22" value="&lt;div&gt;&lt;b style=&quot;background-color: transparent; color: light-dark(rgb(0, 0, 0), rgb(255, 255, 255));&quot;&gt;JwtService&lt;/b&gt;&lt;/div&gt;&lt;div&gt;&lt;div&gt;&lt;b&gt;&lt;br&gt;&lt;/b&gt;&lt;/div&gt;&lt;div&gt;Se genera el token usando&lt;/div&gt;&lt;div&gt;&amp;nbsp;el rol y username del request.&lt;/div&gt;&lt;/div&gt;" style="shape=parallelogram;perimeter=parallelogramPerimeter;whiteSpace=wrap;html=1;fixedSize=1;" parent="WIyWlLk6GJQsqaUBKTNV-1" vertex="1">
          <mxGeometry x="82" y="585" width="216" height="80" as="geometry" />
        </mxCell>
        <mxCell id="nM7WRYUH7kIRdtRXSgoU-36" value="" style="edgeStyle=orthogonalEdgeStyle;rounded=0;orthogonalLoop=1;jettySize=auto;html=1;" parent="WIyWlLk6GJQsqaUBKTNV-1" source="nM7WRYUH7kIRdtRXSgoU-23" target="nM7WRYUH7kIRdtRXSgoU-35" edge="1">
          <mxGeometry relative="1" as="geometry" />
        </mxCell>
        <mxCell id="nM7WRYUH7kIRdtRXSgoU-23" value="&lt;div&gt;&lt;b&gt;AuthService&lt;/b&gt;&lt;/div&gt;&lt;div&gt;&lt;br&gt;&lt;/div&gt;Se guarda el nuevo&amp;nbsp;&lt;div&gt;usuario en MongoDB&lt;/div&gt;" style="shape=parallelogram;perimeter=parallelogramPerimeter;whiteSpace=wrap;html=1;fixedSize=1;" parent="WIyWlLk6GJQsqaUBKTNV-1" vertex="1">
          <mxGeometry x="100" y="300" width="180" height="70" as="geometry" />
        </mxCell>
        <mxCell id="nM7WRYUH7kIRdtRXSgoU-26" value="" style="edgeStyle=orthogonalEdgeStyle;rounded=0;orthogonalLoop=1;jettySize=auto;html=1;" parent="WIyWlLk6GJQsqaUBKTNV-1" source="nM7WRYUH7kIRdtRXSgoU-27" target="nM7WRYUH7kIRdtRXSgoU-29" edge="1">
          <mxGeometry relative="1" as="geometry" />
        </mxCell>
        <mxCell id="nM7WRYUH7kIRdtRXSgoU-27" value="Inicio Login" style="ellipse;whiteSpace=wrap;html=1;" parent="WIyWlLk6GJQsqaUBKTNV-1" vertex="1">
          <mxGeometry x="418" y="60" width="90" height="60" as="geometry" />
        </mxCell>
        <mxCell id="nM7WRYUH7kIRdtRXSgoU-28" value="" style="edgeStyle=orthogonalEdgeStyle;rounded=0;orthogonalLoop=1;jettySize=auto;html=1;" parent="WIyWlLk6GJQsqaUBKTNV-1" source="nM7WRYUH7kIRdtRXSgoU-29" edge="1">
          <mxGeometry relative="1" as="geometry">
            <mxPoint x="463" y="298" as="targetPoint" />
          </mxGeometry>
        </mxCell>
        <mxCell id="nM7WRYUH7kIRdtRXSgoU-29" value="&lt;div&gt;&lt;b&gt;AuthController&lt;/b&gt;&lt;/div&gt;&lt;div&gt;&lt;br&gt;&lt;/div&gt;Solicitud de login" style="rounded=1;whiteSpace=wrap;html=1;fontSize=12;glass=0;strokeWidth=1;shadow=0;" parent="WIyWlLk6GJQsqaUBKTNV-1" vertex="1">
          <mxGeometry x="403" y="160" width="120" height="80" as="geometry" />
        </mxCell>
        <mxCell id="nM7WRYUH7kIRdtRXSgoU-30" value="&lt;b&gt;AuthController&lt;/b&gt;&lt;div&gt;&lt;b&gt;&lt;br&gt;&lt;/b&gt;&lt;/div&gt;&lt;div&gt;Se devuelve al front.&lt;/div&gt;" style="ellipse;whiteSpace=wrap;html=1;" parent="WIyWlLk6GJQsqaUBKTNV-1" vertex="1">
          <mxGeometry x="530" y="990" width="120" height="80" as="geometry" />
        </mxCell>
        <mxCell id="nM7WRYUH7kIRdtRXSgoU-31" value="" style="edgeStyle=orthogonalEdgeStyle;rounded=0;orthogonalLoop=1;jettySize=auto;html=1;entryX=0.5;entryY=0;entryDx=0;entryDy=0;" parent="WIyWlLk6GJQsqaUBKTNV-1" source="nM7WRYUH7kIRdtRXSgoU-32" target="nM7WRYUH7kIRdtRXSgoU-30" edge="1">
          <mxGeometry relative="1" as="geometry">
            <mxPoint x="590" y="994.9999999999995" as="targetPoint" />
          </mxGeometry>
        </mxCell>
        <mxCell id="nM7WRYUH7kIRdtRXSgoU-32" value="&lt;div&gt;&lt;b style=&quot;background-color: transparent; color: light-dark(rgb(0, 0, 0), rgb(255, 255, 255));&quot;&gt;JwtService&lt;/b&gt;&lt;/div&gt;&lt;div&gt;&lt;div&gt;&lt;b&gt;&lt;br&gt;&lt;/b&gt;&lt;/div&gt;&lt;div&gt;Se genera el token usando&lt;/div&gt;&lt;div&gt;&amp;nbsp;el rol y username del request.&lt;/div&gt;&lt;/div&gt;" style="shape=parallelogram;perimeter=parallelogramPerimeter;whiteSpace=wrap;html=1;fixedSize=1;" parent="WIyWlLk6GJQsqaUBKTNV-1" vertex="1">
          <mxGeometry x="482" y="865" width="216" height="80" as="geometry" />
        </mxCell>
        <mxCell id="nM7WRYUH7kIRdtRXSgoU-41" value="" style="edgeStyle=orthogonalEdgeStyle;rounded=0;orthogonalLoop=1;jettySize=auto;html=1;" parent="WIyWlLk6GJQsqaUBKTNV-1" source="nM7WRYUH7kIRdtRXSgoU-34" target="nM7WRYUH7kIRdtRXSgoU-38" edge="1">
          <mxGeometry relative="1" as="geometry" />
        </mxCell>
        <mxCell id="nM7WRYUH7kIRdtRXSgoU-34" value="&lt;div&gt;&lt;b&gt;AuthService&lt;/b&gt;&lt;/div&gt;&lt;div&gt;&lt;br&gt;&lt;/div&gt;Se busca el&amp;nbsp;&lt;div&gt;usuario en MongoDB&lt;/div&gt;" style="shape=parallelogram;perimeter=parallelogramPerimeter;whiteSpace=wrap;html=1;fixedSize=1;" parent="WIyWlLk6GJQsqaUBKTNV-1" vertex="1">
          <mxGeometry x="378" y="300" width="180" height="70" as="geometry" />
        </mxCell>
        <mxCell id="nM7WRYUH7kIRdtRXSgoU-37" value="" style="edgeStyle=orthogonalEdgeStyle;rounded=0;orthogonalLoop=1;jettySize=auto;html=1;" parent="WIyWlLk6GJQsqaUBKTNV-1" source="nM7WRYUH7kIRdtRXSgoU-35" target="nM7WRYUH7kIRdtRXSgoU-22" edge="1">
          <mxGeometry relative="1" as="geometry" />
        </mxCell>
        <mxCell id="nM7WRYUH7kIRdtRXSgoU-35" value="&lt;b&gt;selling_points_db&lt;/b&gt;&lt;div&gt;&lt;b&gt;(users)&lt;/b&gt;&lt;/div&gt;" style="shape=cylinder3;whiteSpace=wrap;html=1;boundedLbl=1;backgroundOutline=1;size=15;" parent="WIyWlLk6GJQsqaUBKTNV-1" vertex="1">
          <mxGeometry x="130" y="425" width="120" height="105" as="geometry" />
        </mxCell>
        <mxCell id="nM7WRYUH7kIRdtRXSgoU-43" value="" style="edgeStyle=orthogonalEdgeStyle;rounded=0;orthogonalLoop=1;jettySize=auto;html=1;" parent="WIyWlLk6GJQsqaUBKTNV-1" source="nM7WRYUH7kIRdtRXSgoU-38" target="nM7WRYUH7kIRdtRXSgoU-42" edge="1">
          <mxGeometry relative="1" as="geometry" />
        </mxCell>
        <mxCell id="nM7WRYUH7kIRdtRXSgoU-38" value="&lt;b&gt;selling_points_db&lt;/b&gt;&lt;div&gt;&lt;b&gt;(users)&lt;/b&gt;&lt;/div&gt;" style="shape=cylinder3;whiteSpace=wrap;html=1;boundedLbl=1;backgroundOutline=1;size=15;" parent="WIyWlLk6GJQsqaUBKTNV-1" vertex="1">
          <mxGeometry x="408" y="420" width="120" height="100" as="geometry" />
        </mxCell>
        <mxCell id="nM7WRYUH7kIRdtRXSgoU-47" value="" style="edgeStyle=orthogonalEdgeStyle;rounded=0;orthogonalLoop=1;jettySize=auto;html=1;" parent="WIyWlLk6GJQsqaUBKTNV-1" source="nM7WRYUH7kIRdtRXSgoU-42" target="nM7WRYUH7kIRdtRXSgoU-46" edge="1">
          <mxGeometry relative="1" as="geometry">
            <Array as="points">
              <mxPoint x="410" y="625" />
            </Array>
          </mxGeometry>
        </mxCell>
        <mxCell id="nM7WRYUH7kIRdtRXSgoU-48" value="NO" style="edgeLabel;html=1;align=center;verticalAlign=middle;resizable=0;points=[];" parent="nM7WRYUH7kIRdtRXSgoU-47" vertex="1" connectable="0">
          <mxGeometry x="-0.1767" relative="1" as="geometry">
            <mxPoint as="offset" />
          </mxGeometry>
        </mxCell>
        <mxCell id="nM7WRYUH7kIRdtRXSgoU-52" value="" style="edgeStyle=orthogonalEdgeStyle;rounded=0;orthogonalLoop=1;jettySize=auto;html=1;entryX=0.5;entryY=0;entryDx=0;entryDy=0;" parent="WIyWlLk6GJQsqaUBKTNV-1" source="nM7WRYUH7kIRdtRXSgoU-42" target="nM7WRYUH7kIRdtRXSgoU-51" edge="1">
          <mxGeometry relative="1" as="geometry" />
        </mxCell>
        <mxCell id="nM7WRYUH7kIRdtRXSgoU-53" value="SI" style="edgeLabel;html=1;align=center;verticalAlign=middle;resizable=0;points=[];" parent="nM7WRYUH7kIRdtRXSgoU-52" vertex="1" connectable="0">
          <mxGeometry x="0.3171" y="-1" relative="1" as="geometry">
            <mxPoint as="offset" />
          </mxGeometry>
        </mxCell>
        <mxCell id="nM7WRYUH7kIRdtRXSgoU-42" value="HallÃ³ un resultado" style="rhombus;whiteSpace=wrap;html=1;" parent="WIyWlLk6GJQsqaUBKTNV-1" vertex="1">
          <mxGeometry x="428" y="585" width="80" height="80" as="geometry" />
        </mxCell>
        <mxCell id="nM7WRYUH7kIRdtRXSgoU-46" value="Se devuelve desde el Controller como error de credenciales." style="ellipse;whiteSpace=wrap;html=1;" parent="WIyWlLk6GJQsqaUBKTNV-1" vertex="1">
          <mxGeometry x="330" y="725" width="152" height="80" as="geometry" />
        </mxCell>
        <mxCell id="nM7WRYUH7kIRdtRXSgoU-54" value="" style="edgeStyle=orthogonalEdgeStyle;rounded=0;orthogonalLoop=1;jettySize=auto;html=1;" parent="WIyWlLk6GJQsqaUBKTNV-1" source="nM7WRYUH7kIRdtRXSgoU-51" target="nM7WRYUH7kIRdtRXSgoU-32" edge="1">
          <mxGeometry relative="1" as="geometry" />
        </mxCell>
        <mxCell id="nM7WRYUH7kIRdtRXSgoU-51" value="Â¿La contraseÃ±a de&amp;nbsp;&lt;div&gt;la BD coincide con la ingresada?&lt;/div&gt;" style="rhombus;whiteSpace=wrap;html=1;" parent="WIyWlLk6GJQsqaUBKTNV-1" vertex="1">
          <mxGeometry x="520" y="705" width="140" height="120" as="geometry" />
        </mxCell>
        <mxCell id="nM7WRYUH7kIRdtRXSgoU-55" value="&lt;h1&gt;Puntos de venta&lt;/h1&gt;" style="text;html=1;align=center;verticalAlign=middle;whiteSpace=wrap;rounded=0;" parent="WIyWlLk6GJQsqaUBKTNV-1" vertex="1">
          <mxGeometry x="1935.4399999999998" y="-130" width="200" height="30" as="geometry" />
        </mxCell>
        <mxCell id="nM7WRYUH7kIRdtRXSgoU-56" value="" style="edgeStyle=orthogonalEdgeStyle;rounded=0;orthogonalLoop=1;jettySize=auto;html=1;" parent="WIyWlLk6GJQsqaUBKTNV-1" source="nM7WRYUH7kIRdtRXSgoU-57" target="nM7WRYUH7kIRdtRXSgoU-59" edge="1">
          <mxGeometry relative="1" as="geometry" />
        </mxCell>
        <mxCell id="nM7WRYUH7kIRdtRXSgoU-57" value="Inicio&amp;nbsp;&lt;div&gt;Crear nuevo&amp;nbsp;&lt;/div&gt;&lt;div&gt;punto de venta&lt;/div&gt;" style="ellipse;whiteSpace=wrap;html=1;" parent="WIyWlLk6GJQsqaUBKTNV-1" vertex="1">
          <mxGeometry x="1760.44" y="10.350000000000001" width="120" height="80" as="geometry" />
        </mxCell>
        <mxCell id="nM7WRYUH7kIRdtRXSgoU-58" value="" style="edgeStyle=orthogonalEdgeStyle;rounded=0;orthogonalLoop=1;jettySize=auto;html=1;" parent="WIyWlLk6GJQsqaUBKTNV-1" source="nM7WRYUH7kIRdtRXSgoU-59" edge="1">
          <mxGeometry relative="1" as="geometry">
            <mxPoint x="1820.44" y="268.35" as="targetPoint" />
          </mxGeometry>
        </mxCell>
        <mxCell id="nM7WRYUH7kIRdtRXSgoU-59" value="&lt;div&gt;&lt;b&gt;SellingPointController&lt;/b&gt;&lt;/div&gt;&lt;div&gt;&lt;br&gt;&lt;/div&gt;Solicitud de creaciÃ³n&lt;div&gt;(&lt;span style=&quot;font-family: Consolas; font-size: 10pt; white-space: pre; background-color: rgb(255, 255, 255); color: light-dark(rgb(0, 0, 0), rgb(255, 255, 255));&quot;&gt;createSellingPoint)&lt;/span&gt;&lt;/div&gt;" style="rounded=1;whiteSpace=wrap;html=1;fontSize=12;glass=0;strokeWidth=1;shadow=0;" parent="WIyWlLk6GJQsqaUBKTNV-1" vertex="1">
          <mxGeometry x="1745.44" y="130" width="150" height="80" as="geometry" />
        </mxCell>
        <mxCell id="nM7WRYUH7kIRdtRXSgoU-62" value="" style="edgeStyle=orthogonalEdgeStyle;rounded=0;orthogonalLoop=1;jettySize=auto;html=1;entryX=0.5;entryY=0;entryDx=0;entryDy=0;" parent="WIyWlLk6GJQsqaUBKTNV-1" source="nM7WRYUH7kIRdtRXSgoU-63" target="nM7WRYUH7kIRdtRXSgoU-66" edge="1">
          <mxGeometry relative="1" as="geometry">
            <mxPoint x="1825.4399999999996" y="395.34999999999957" as="targetPoint" />
          </mxGeometry>
        </mxCell>
        <mxCell id="nM7WRYUH7kIRdtRXSgoU-63" value="&lt;div&gt;&lt;b&gt;SellingPointsService&lt;/b&gt;&lt;/div&gt;&lt;div&gt;&lt;br&gt;&lt;/div&gt;Se consulta por la key existente&lt;span style=&quot;background-color: transparent; color: light-dark(rgb(0, 0, 0), rgb(255, 255, 255));&quot;&gt;&amp;nbsp;en Redis&lt;/span&gt;" style="shape=parallelogram;perimeter=parallelogramPerimeter;whiteSpace=wrap;html=1;fixedSize=1;" parent="WIyWlLk6GJQsqaUBKTNV-1" vertex="1">
          <mxGeometry x="1735.44" y="270.35" width="180" height="70" as="geometry" />
        </mxCell>
        <mxCell id="nM7WRYUH7kIRdtRXSgoU-69" value="" style="edgeStyle=orthogonalEdgeStyle;rounded=0;orthogonalLoop=1;jettySize=auto;html=1;entryX=0.5;entryY=0;entryDx=0;entryDy=0;" parent="WIyWlLk6GJQsqaUBKTNV-1" source="nM7WRYUH7kIRdtRXSgoU-66" target="nM7WRYUH7kIRdtRXSgoU-71" edge="1">
          <mxGeometry relative="1" as="geometry">
            <mxPoint x="1665.68" y="650" as="targetPoint" />
            <Array as="points">
              <mxPoint x="1665.68" y="492" />
            </Array>
          </mxGeometry>
        </mxCell>
        <mxCell id="nM7WRYUH7kIRdtRXSgoU-77" value="NO" style="edgeLabel;html=1;align=center;verticalAlign=middle;resizable=0;points=[];" parent="nM7WRYUH7kIRdtRXSgoU-69" vertex="1" connectable="0">
          <mxGeometry x="0.2668" y="5" relative="1" as="geometry">
            <mxPoint x="-5" as="offset" />
          </mxGeometry>
        </mxCell>
        <mxCell id="nM7WRYUH7kIRdtRXSgoU-79" value="" style="edgeStyle=orthogonalEdgeStyle;rounded=0;orthogonalLoop=1;jettySize=auto;html=1;" parent="WIyWlLk6GJQsqaUBKTNV-1" source="nM7WRYUH7kIRdtRXSgoU-66" target="nM7WRYUH7kIRdtRXSgoU-78" edge="1">
          <mxGeometry relative="1" as="geometry" />
        </mxCell>
        <mxCell id="nM7WRYUH7kIRdtRXSgoU-91" value="SI" style="edgeLabel;html=1;align=center;verticalAlign=middle;resizable=0;points=[];" parent="nM7WRYUH7kIRdtRXSgoU-79" vertex="1" connectable="0">
          <mxGeometry x="0.0506" y="-1" relative="1" as="geometry">
            <mxPoint as="offset" />
          </mxGeometry>
        </mxCell>
        <mxCell id="nM7WRYUH7kIRdtRXSgoU-66" value="Â¿Ya hay un resultado para esa key?" style="rhombus;whiteSpace=wrap;html=1;" parent="WIyWlLk6GJQsqaUBKTNV-1" vertex="1">
          <mxGeometry x="1755.44" y="430.35" width="140" height="122.5" as="geometry" />
        </mxCell>
        <mxCell id="nM7WRYUH7kIRdtRXSgoU-70" value="" style="edgeStyle=orthogonalEdgeStyle;rounded=0;orthogonalLoop=1;jettySize=auto;html=1;" parent="WIyWlLk6GJQsqaUBKTNV-1" source="nM7WRYUH7kIRdtRXSgoU-71" target="nM7WRYUH7kIRdtRXSgoU-73" edge="1">
          <mxGeometry relative="1" as="geometry" />
        </mxCell>
        <mxCell id="nM7WRYUH7kIRdtRXSgoU-71" value="&lt;div&gt;&lt;b&gt;SellingPointsService&lt;/b&gt;&lt;/div&gt;&lt;div&gt;&lt;br&gt;&lt;/div&gt;Se consulta por valores existentes&lt;span style=&quot;background-color: transparent; color: light-dark(rgb(0, 0, 0), rgb(255, 255, 255));&quot;&gt;&amp;nbsp;en MongoDB&lt;/span&gt;" style="shape=parallelogram;perimeter=parallelogramPerimeter;whiteSpace=wrap;html=1;fixedSize=1;" parent="WIyWlLk6GJQsqaUBKTNV-1" vertex="1">
          <mxGeometry x="1575.44" y="590" width="180" height="70" as="geometry" />
        </mxCell>
        <mxCell id="nM7WRYUH7kIRdtRXSgoU-72" value="" style="edgeStyle=orthogonalEdgeStyle;rounded=0;orthogonalLoop=1;jettySize=auto;html=1;" parent="WIyWlLk6GJQsqaUBKTNV-1" source="nM7WRYUH7kIRdtRXSgoU-73" target="nM7WRYUH7kIRdtRXSgoU-75" edge="1">
          <mxGeometry relative="1" as="geometry" />
        </mxCell>
        <mxCell id="nM7WRYUH7kIRdtRXSgoU-73" value="&lt;b&gt;selling_points_db&lt;/b&gt;&lt;div&gt;&lt;b&gt;(sellingPoints)&lt;/b&gt;&lt;/div&gt;" style="shape=cylinder3;whiteSpace=wrap;html=1;boundedLbl=1;backgroundOutline=1;size=15;" parent="WIyWlLk6GJQsqaUBKTNV-1" vertex="1">
          <mxGeometry x="1605.44" y="715" width="120" height="105" as="geometry" />
        </mxCell>
        <mxCell id="nM7WRYUH7kIRdtRXSgoU-81" value="" style="edgeStyle=orthogonalEdgeStyle;rounded=0;orthogonalLoop=1;jettySize=auto;html=1;" parent="WIyWlLk6GJQsqaUBKTNV-1" source="nM7WRYUH7kIRdtRXSgoU-75" target="nM7WRYUH7kIRdtRXSgoU-80" edge="1">
          <mxGeometry relative="1" as="geometry" />
        </mxCell>
        <mxCell id="nM7WRYUH7kIRdtRXSgoU-82" value="SI" style="edgeLabel;html=1;align=center;verticalAlign=middle;resizable=0;points=[];" parent="nM7WRYUH7kIRdtRXSgoU-81" vertex="1" connectable="0">
          <mxGeometry x="0.089" relative="1" as="geometry">
            <mxPoint as="offset" />
          </mxGeometry>
        </mxCell>
        <mxCell id="nM7WRYUH7kIRdtRXSgoU-87" value="" style="edgeStyle=orthogonalEdgeStyle;rounded=0;orthogonalLoop=1;jettySize=auto;html=1;" parent="WIyWlLk6GJQsqaUBKTNV-1" source="nM7WRYUH7kIRdtRXSgoU-75" target="nM7WRYUH7kIRdtRXSgoU-86" edge="1">
          <mxGeometry relative="1" as="geometry" />
        </mxCell>
        <mxCell id="nM7WRYUH7kIRdtRXSgoU-75" value="Â¿Ya hay un resultado para ese id?" style="rhombus;whiteSpace=wrap;html=1;" parent="WIyWlLk6GJQsqaUBKTNV-1" vertex="1">
          <mxGeometry x="1595.44" y="870" width="140" height="122.5" as="geometry" />
        </mxCell>
        <mxCell id="nM7WRYUH7kIRdtRXSgoU-83" style="edgeStyle=orthogonalEdgeStyle;rounded=0;orthogonalLoop=1;jettySize=auto;html=1;entryX=0.5;entryY=0;entryDx=0;entryDy=0;" parent="WIyWlLk6GJQsqaUBKTNV-1" source="nM7WRYUH7kIRdtRXSgoU-78" target="nM7WRYUH7kIRdtRXSgoU-80" edge="1">
          <mxGeometry relative="1" as="geometry" />
        </mxCell>
        <mxCell id="nM7WRYUH7kIRdtRXSgoU-78" value="&lt;div&gt;&lt;b&gt;SellingPointsService&lt;/b&gt;&lt;/div&gt;&lt;div&gt;&lt;br&gt;&lt;/div&gt;Se devuelve al controller el resultado" style="whiteSpace=wrap;html=1;" parent="WIyWlLk6GJQsqaUBKTNV-1" vertex="1">
          <mxGeometry x="1905.68" y="590" width="120" height="60" as="geometry" />
        </mxCell>
        <mxCell id="nM7WRYUH7kIRdtRXSgoU-80" value="&lt;b&gt;SellingPointsController&lt;/b&gt;&lt;div&gt;&lt;b&gt;&lt;br&gt;&lt;/b&gt;&lt;/div&gt;&lt;div&gt;Se devuelve un Bad request al front.&lt;/div&gt;" style="ellipse;whiteSpace=wrap;html=1;" parent="WIyWlLk6GJQsqaUBKTNV-1" vertex="1">
          <mxGeometry x="1890.68" y="855.63" width="150" height="151.25" as="geometry" />
        </mxCell>
        <mxCell id="nM7WRYUH7kIRdtRXSgoU-90" value="" style="edgeStyle=orthogonalEdgeStyle;rounded=0;orthogonalLoop=1;jettySize=auto;html=1;" parent="WIyWlLk6GJQsqaUBKTNV-1" source="nM7WRYUH7kIRdtRXSgoU-84" target="nM7WRYUH7kIRdtRXSgoU-89" edge="1">
          <mxGeometry relative="1" as="geometry" />
        </mxCell>
        <mxCell id="nM7WRYUH7kIRdtRXSgoU-84" value="&lt;b&gt;selling_points_db&lt;/b&gt;&lt;div&gt;&lt;b&gt;(sellingPoints)&lt;/b&gt;&lt;/div&gt;" style="shape=cylinder3;whiteSpace=wrap;html=1;boundedLbl=1;backgroundOutline=1;size=15;" parent="WIyWlLk6GJQsqaUBKTNV-1" vertex="1">
          <mxGeometry x="1605.44" y="1170" width="120" height="105" as="geometry" />
        </mxCell>
        <mxCell id="nM7WRYUH7kIRdtRXSgoU-88" value="" style="edgeStyle=orthogonalEdgeStyle;rounded=0;orthogonalLoop=1;jettySize=auto;html=1;" parent="WIyWlLk6GJQsqaUBKTNV-1" source="nM7WRYUH7kIRdtRXSgoU-86" target="nM7WRYUH7kIRdtRXSgoU-84" edge="1">
          <mxGeometry relative="1" as="geometry" />
        </mxCell>
        <mxCell id="nM7WRYUH7kIRdtRXSgoU-86" value="&lt;div&gt;&lt;b&gt;SellingPointsService&lt;/b&gt;&lt;/div&gt;&lt;div&gt;&lt;br&gt;&lt;/div&gt;Se guarda el nuevo valor&amp;nbsp;&lt;div&gt;en la base&lt;/div&gt;" style="shape=parallelogram;perimeter=parallelogramPerimeter;whiteSpace=wrap;html=1;fixedSize=1;" parent="WIyWlLk6GJQsqaUBKTNV-1" vertex="1">
          <mxGeometry x="1575.44" y="1050" width="180" height="70" as="geometry" />
        </mxCell>
        <mxCell id="nM7WRYUH7kIRdtRXSgoU-89" value="&lt;b&gt;SellingPointsControl&lt;/b&gt;&lt;div&gt;&lt;b&gt;&lt;br&gt;&lt;/b&gt;&lt;/div&gt;&lt;div&gt;Se devuelve al front un Crated&lt;/div&gt;" style="ellipse;whiteSpace=wrap;html=1;" parent="WIyWlLk6GJQsqaUBKTNV-1" vertex="1">
          <mxGeometry x="1587.88" y="1320" width="155.12" height="140" as="geometry" />
        </mxCell>
        <mxCell id="nM7WRYUH7kIRdtRXSgoU-92" value="" style="edgeStyle=orthogonalEdgeStyle;rounded=0;orthogonalLoop=1;jettySize=auto;html=1;" parent="WIyWlLk6GJQsqaUBKTNV-1" source="nM7WRYUH7kIRdtRXSgoU-93" target="nM7WRYUH7kIRdtRXSgoU-95" edge="1">
          <mxGeometry relative="1" as="geometry" />
        </mxCell>
        <mxCell id="nM7WRYUH7kIRdtRXSgoU-93" value="Inicio&amp;nbsp;&lt;div&gt;Remover un&amp;nbsp;&lt;/div&gt;&lt;div&gt;costo de venta&lt;br&gt;&lt;/div&gt;" style="ellipse;whiteSpace=wrap;html=1;" parent="WIyWlLk6GJQsqaUBKTNV-1" vertex="1">
          <mxGeometry x="2770.44" y="6.670000000000002" width="120" height="80" as="geometry" />
        </mxCell>
        <mxCell id="nM7WRYUH7kIRdtRXSgoU-94" value="" style="edgeStyle=orthogonalEdgeStyle;rounded=0;orthogonalLoop=1;jettySize=auto;html=1;" parent="WIyWlLk6GJQsqaUBKTNV-1" source="nM7WRYUH7kIRdtRXSgoU-95" edge="1">
          <mxGeometry relative="1" as="geometry">
            <mxPoint x="2830.44" y="264.67" as="targetPoint" />
          </mxGeometry>
        </mxCell>
        <mxCell id="nM7WRYUH7kIRdtRXSgoU-95" value="&lt;div&gt;&lt;b&gt;SellingPointController&lt;/b&gt;&lt;/div&gt;&lt;div&gt;&lt;br&gt;&lt;/div&gt;Solicitud de delete (&lt;span style=&quot;background-color:#ffffff;padding:0px 0px 0px 2px;&quot;&gt;&lt;span style=&quot;font-family: Consolas; font-size: 10pt; white-space: pre;&quot;&gt;deleteSellingPoint)&lt;/span&gt;&lt;/span&gt;" style="rounded=1;whiteSpace=wrap;html=1;fontSize=12;glass=0;strokeWidth=1;shadow=0;" parent="WIyWlLk6GJQsqaUBKTNV-1" vertex="1">
          <mxGeometry x="2755.44" y="126.66999999999999" width="150" height="80" as="geometry" />
        </mxCell>
        <mxCell id="nM7WRYUH7kIRdtRXSgoU-96" value="" style="edgeStyle=orthogonalEdgeStyle;rounded=0;orthogonalLoop=1;jettySize=auto;html=1;entryX=0.5;entryY=0;entryDx=0;entryDy=0;" parent="WIyWlLk6GJQsqaUBKTNV-1" source="nM7WRYUH7kIRdtRXSgoU-97" target="nM7WRYUH7kIRdtRXSgoU-102" edge="1">
          <mxGeometry relative="1" as="geometry">
            <mxPoint x="2835.44" y="391.66999999999956" as="targetPoint" />
          </mxGeometry>
        </mxCell>
        <mxCell id="nM7WRYUH7kIRdtRXSgoU-97" value="&lt;div&gt;&lt;b&gt;SellingPointsService&lt;/b&gt;&lt;/div&gt;&lt;div&gt;&lt;br&gt;&lt;/div&gt;Se consulta por la BD por resultados existentes&lt;div&gt;(para saber que tipo de respuesta devolver)&lt;/div&gt;" style="shape=parallelogram;perimeter=parallelogramPerimeter;whiteSpace=wrap;html=1;fixedSize=1;" parent="WIyWlLk6GJQsqaUBKTNV-1" vertex="1">
          <mxGeometry x="2745.44" y="256.32" width="180" height="140" as="geometry" />
        </mxCell>
        <mxCell id="nM7WRYUH7kIRdtRXSgoU-98" value="" style="edgeStyle=orthogonalEdgeStyle;rounded=0;orthogonalLoop=1;jettySize=auto;html=1;entryX=0.5;entryY=0;entryDx=0;entryDy=0;" parent="WIyWlLk6GJQsqaUBKTNV-1" source="nM7WRYUH7kIRdtRXSgoU-102" target="nM7WRYUH7kIRdtRXSgoU-104" edge="1">
          <mxGeometry relative="1" as="geometry">
            <mxPoint x="2675.68" y="646.32" as="targetPoint" />
            <Array as="points">
              <mxPoint x="2675.68" y="488.32000000000005" />
            </Array>
          </mxGeometry>
        </mxCell>
        <mxCell id="nM7WRYUH7kIRdtRXSgoU-99" value="NO" style="edgeLabel;html=1;align=center;verticalAlign=middle;resizable=0;points=[];" parent="nM7WRYUH7kIRdtRXSgoU-98" vertex="1" connectable="0">
          <mxGeometry x="0.2668" y="5" relative="1" as="geometry">
            <mxPoint x="-5" as="offset" />
          </mxGeometry>
        </mxCell>
        <mxCell id="nM7WRYUH7kIRdtRXSgoU-100" value="" style="edgeStyle=orthogonalEdgeStyle;rounded=0;orthogonalLoop=1;jettySize=auto;html=1;" parent="WIyWlLk6GJQsqaUBKTNV-1" source="nM7WRYUH7kIRdtRXSgoU-102" target="nM7WRYUH7kIRdtRXSgoU-112" edge="1">
          <mxGeometry relative="1" as="geometry">
            <mxPoint x="2975.44" y="846.32" as="targetPoint" />
            <Array as="points">
              <mxPoint x="2975.44" y="490.32000000000005" />
            </Array>
          </mxGeometry>
        </mxCell>
        <mxCell id="nM7WRYUH7kIRdtRXSgoU-101" value="SI" style="edgeLabel;html=1;align=center;verticalAlign=middle;resizable=0;points=[];" parent="nM7WRYUH7kIRdtRXSgoU-100" vertex="1" connectable="0">
          <mxGeometry x="0.0506" y="-1" relative="1" as="geometry">
            <mxPoint as="offset" />
          </mxGeometry>
        </mxCell>
        <mxCell id="nM7WRYUH7kIRdtRXSgoU-102" value="Â¿Ya hay un resultado para ese id?" style="rhombus;whiteSpace=wrap;html=1;" parent="WIyWlLk6GJQsqaUBKTNV-1" vertex="1">
          <mxGeometry x="2765.44" y="428.82" width="140" height="122.5" as="geometry" />
        </mxCell>
        <mxCell id="nM7WRYUH7kIRdtRXSgoU-103" value="" style="edgeStyle=orthogonalEdgeStyle;rounded=0;orthogonalLoop=1;jettySize=auto;html=1;" parent="WIyWlLk6GJQsqaUBKTNV-1" source="nM7WRYUH7kIRdtRXSgoU-104" target="nM7WRYUH7kIRdtRXSgoU-106" edge="1">
          <mxGeometry relative="1" as="geometry" />
        </mxCell>
        <mxCell id="nM7WRYUH7kIRdtRXSgoU-104" value="&lt;div&gt;&lt;b&gt;SellingPointsService&lt;/b&gt;&lt;/div&gt;&lt;div&gt;&lt;br&gt;&lt;/div&gt;Se elimina de&amp;nbsp;&lt;span style=&quot;background-color: transparent; color: light-dark(rgb(0, 0, 0), rgb(255, 255, 255));&quot;&gt;MongoDB&lt;/span&gt;" style="shape=parallelogram;perimeter=parallelogramPerimeter;whiteSpace=wrap;html=1;fixedSize=1;" parent="WIyWlLk6GJQsqaUBKTNV-1" vertex="1">
          <mxGeometry x="2585.44" y="586.32" width="180" height="70" as="geometry" />
        </mxCell>
        <mxCell id="nM7WRYUH7kIRdtRXSgoU-106" value="&lt;b&gt;selling_points_db&lt;/b&gt;&lt;div&gt;&lt;b&gt;(sellingPoints)&lt;/b&gt;&lt;/div&gt;" style="shape=cylinder3;whiteSpace=wrap;html=1;boundedLbl=1;backgroundOutline=1;size=15;" parent="WIyWlLk6GJQsqaUBKTNV-1" vertex="1">
          <mxGeometry x="2615.44" y="711.32" width="120" height="105" as="geometry" />
        </mxCell>
        <mxCell id="nM7WRYUH7kIRdtRXSgoU-109" value="" style="edgeStyle=orthogonalEdgeStyle;rounded=0;orthogonalLoop=1;jettySize=auto;html=1;" parent="WIyWlLk6GJQsqaUBKTNV-1" source="nM7WRYUH7kIRdtRXSgoU-106" target="nM7WRYUH7kIRdtRXSgoU-116" edge="1">
          <mxGeometry relative="1" as="geometry">
            <mxPoint x="2675.4399999999996" y="988.82" as="sourcePoint" />
          </mxGeometry>
        </mxCell>
        <mxCell id="nM7WRYUH7kIRdtRXSgoU-112" value="&lt;b&gt;SellingPointsController&lt;/b&gt;&lt;div&gt;&lt;b&gt;&lt;br&gt;&lt;/b&gt;&lt;/div&gt;&lt;div&gt;Se devuelve un Bad request al front.&lt;/div&gt;" style="ellipse;whiteSpace=wrap;html=1;" parent="WIyWlLk6GJQsqaUBKTNV-1" vertex="1">
          <mxGeometry x="2900.68" y="851.95" width="150" height="151.25" as="geometry" />
        </mxCell>
        <mxCell id="nM7WRYUH7kIRdtRXSgoU-121" value="" style="edgeStyle=orthogonalEdgeStyle;rounded=0;orthogonalLoop=1;jettySize=auto;html=1;" parent="WIyWlLk6GJQsqaUBKTNV-1" source="nM7WRYUH7kIRdtRXSgoU-116" target="nM7WRYUH7kIRdtRXSgoU-118" edge="1">
          <mxGeometry relative="1" as="geometry" />
        </mxCell>
        <mxCell id="nM7WRYUH7kIRdtRXSgoU-116" value="&lt;div&gt;&lt;b&gt;SellingPointsService&lt;/b&gt;&lt;/div&gt;&lt;div&gt;&lt;br&gt;&lt;/div&gt;Se elimina el valor de redis" style="shape=parallelogram;perimeter=parallelogramPerimeter;whiteSpace=wrap;html=1;fixedSize=1;" parent="WIyWlLk6GJQsqaUBKTNV-1" vertex="1">
          <mxGeometry x="2585.44" y="861.32" width="180" height="70" as="geometry" />
        </mxCell>
        <mxCell id="nM7WRYUH7kIRdtRXSgoU-117" value="&lt;b&gt;SellingPointsControl&lt;/b&gt;&lt;div&gt;&lt;b&gt;&lt;br&gt;&lt;/b&gt;&lt;/div&gt;&lt;div&gt;Se devuelve al front un Crated&lt;/div&gt;" style="ellipse;whiteSpace=wrap;html=1;" parent="WIyWlLk6GJQsqaUBKTNV-1" vertex="1">
          <mxGeometry x="2597.88" y="1386.32" width="155.12" height="140" as="geometry" />
        </mxCell>
        <mxCell id="nM7WRYUH7kIRdtRXSgoU-122" value="" style="edgeStyle=orthogonalEdgeStyle;rounded=0;orthogonalLoop=1;jettySize=auto;html=1;" parent="WIyWlLk6GJQsqaUBKTNV-1" source="nM7WRYUH7kIRdtRXSgoU-118" target="nM7WRYUH7kIRdtRXSgoU-119" edge="1">
          <mxGeometry relative="1" as="geometry" />
        </mxCell>
        <mxCell id="nM7WRYUH7kIRdtRXSgoU-118" value="&lt;div&gt;&lt;b&gt;SellingPointsService&lt;/b&gt;&lt;/div&gt;&lt;div&gt;&lt;br&gt;&lt;/div&gt;Se consultan todos&amp;nbsp;&lt;div&gt;los valores en la BD&lt;/div&gt;" style="shape=parallelogram;perimeter=parallelogramPerimeter;whiteSpace=wrap;html=1;fixedSize=1;" parent="WIyWlLk6GJQsqaUBKTNV-1" vertex="1">
          <mxGeometry x="2585.44" y="988.8200000000002" width="180" height="70" as="geometry" />
        </mxCell>
        <mxCell id="nM7WRYUH7kIRdtRXSgoU-124" value="" style="edgeStyle=orthogonalEdgeStyle;rounded=0;orthogonalLoop=1;jettySize=auto;html=1;" parent="WIyWlLk6GJQsqaUBKTNV-1" source="nM7WRYUH7kIRdtRXSgoU-119" target="nM7WRYUH7kIRdtRXSgoU-123" edge="1">
          <mxGeometry relative="1" as="geometry" />
        </mxCell>
        <mxCell id="nM7WRYUH7kIRdtRXSgoU-119" value="&lt;b&gt;selling_points_db&lt;/b&gt;&lt;div&gt;&lt;b&gt;(sellingPoints)&lt;/b&gt;&lt;/div&gt;" style="shape=cylinder3;whiteSpace=wrap;html=1;boundedLbl=1;backgroundOutline=1;size=15;" parent="WIyWlLk6GJQsqaUBKTNV-1" vertex="1">
          <mxGeometry x="2615.44" y="1106.32" width="120" height="105" as="geometry" />
        </mxCell>
        <mxCell id="nM7WRYUH7kIRdtRXSgoU-125" value="" style="edgeStyle=orthogonalEdgeStyle;rounded=0;orthogonalLoop=1;jettySize=auto;html=1;" parent="WIyWlLk6GJQsqaUBKTNV-1" source="nM7WRYUH7kIRdtRXSgoU-123" target="nM7WRYUH7kIRdtRXSgoU-117" edge="1">
          <mxGeometry relative="1" as="geometry" />
        </mxCell>
        <mxCell id="nM7WRYUH7kIRdtRXSgoU-123" value="&lt;div&gt;&lt;b style=&quot;background-color: transparent; color: light-dark(rgb(0, 0, 0), rgb(255, 255, 255));&quot;&gt;Redis&lt;/b&gt;&lt;/div&gt;Se actualizan los&lt;div&gt;&amp;nbsp;valores en Redis&lt;/div&gt;" style="shape=parallelogram;perimeter=parallelogramPerimeter;whiteSpace=wrap;html=1;fixedSize=1;" parent="WIyWlLk6GJQsqaUBKTNV-1" vertex="1">
          <mxGeometry x="2585.44" y="1256.32" width="180" height="70" as="geometry" />
        </mxCell>
        <mxCell id="nM7WRYUH7kIRdtRXSgoU-126" value="" style="edgeStyle=orthogonalEdgeStyle;rounded=0;orthogonalLoop=1;jettySize=auto;html=1;" parent="WIyWlLk6GJQsqaUBKTNV-1" source="nM7WRYUH7kIRdtRXSgoU-127" target="nM7WRYUH7kIRdtRXSgoU-129" edge="1">
          <mxGeometry relative="1" as="geometry" />
        </mxCell>
        <mxCell id="nM7WRYUH7kIRdtRXSgoU-127" value="Inicio&lt;div&gt;Consulta por todos&lt;/div&gt;" style="ellipse;whiteSpace=wrap;html=1;" parent="WIyWlLk6GJQsqaUBKTNV-1" vertex="1">
          <mxGeometry x="1204.9999999999998" y="9" width="120" height="80" as="geometry" />
        </mxCell>
        <mxCell id="nM7WRYUH7kIRdtRXSgoU-128" value="" style="edgeStyle=orthogonalEdgeStyle;rounded=0;orthogonalLoop=1;jettySize=auto;html=1;" parent="WIyWlLk6GJQsqaUBKTNV-1" source="nM7WRYUH7kIRdtRXSgoU-129" edge="1">
          <mxGeometry relative="1" as="geometry">
            <mxPoint x="1264.9999999999998" y="267.35" as="targetPoint" />
          </mxGeometry>
        </mxCell>
        <mxCell id="nM7WRYUH7kIRdtRXSgoU-129" value="&lt;div&gt;&lt;b&gt;SellingPointController&lt;/b&gt;&lt;/div&gt;&lt;div&gt;&lt;br&gt;&lt;/div&gt;Solicitud de consulta de todos los puntos de venta&lt;div&gt;(&lt;span style=&quot;font-family: Consolas; font-size: 10pt; white-space: pre; color: light-dark(rgb(0, 0, 0), rgb(255, 255, 255));&quot;&gt;getAllSellingPoints&lt;/span&gt;&lt;span style=&quot;background-color: rgb(212, 212, 212); font-family: Consolas; font-size: 10pt; white-space: pre; color: light-dark(rgb(0, 0, 0), rgb(255, 255, 255));&quot;&gt;)&lt;/span&gt;&lt;/div&gt;" style="rounded=1;whiteSpace=wrap;html=1;fontSize=12;glass=0;strokeWidth=1;shadow=0;" parent="WIyWlLk6GJQsqaUBKTNV-1" vertex="1">
          <mxGeometry x="1169.9999999999998" y="129.35" width="190" height="80" as="geometry" />
        </mxCell>
        <mxCell id="nM7WRYUH7kIRdtRXSgoU-130" value="" style="edgeStyle=orthogonalEdgeStyle;rounded=0;orthogonalLoop=1;jettySize=auto;html=1;entryX=0.5;entryY=0;entryDx=0;entryDy=0;" parent="WIyWlLk6GJQsqaUBKTNV-1" source="nM7WRYUH7kIRdtRXSgoU-131" target="nM7WRYUH7kIRdtRXSgoU-136" edge="1">
          <mxGeometry relative="1" as="geometry">
            <mxPoint x="1269.9999999999998" y="394.34999999999957" as="targetPoint" />
          </mxGeometry>
        </mxCell>
        <mxCell id="nM7WRYUH7kIRdtRXSgoU-131" value="&lt;div&gt;&lt;b&gt;SellingPointsService&lt;/b&gt;&lt;/div&gt;&lt;div&gt;&lt;br&gt;&lt;/div&gt;Se consulta en Redis si hay&amp;nbsp;&lt;div&gt;un valor existente&lt;/div&gt;" style="shape=parallelogram;perimeter=parallelogramPerimeter;whiteSpace=wrap;html=1;fixedSize=1;" parent="WIyWlLk6GJQsqaUBKTNV-1" vertex="1">
          <mxGeometry x="1179.9999999999998" y="269.35" width="180" height="70" as="geometry" />
        </mxCell>
        <mxCell id="nM7WRYUH7kIRdtRXSgoU-132" value="" style="edgeStyle=orthogonalEdgeStyle;rounded=0;orthogonalLoop=1;jettySize=auto;html=1;" parent="WIyWlLk6GJQsqaUBKTNV-1" source="nM7WRYUH7kIRdtRXSgoU-136" edge="1">
          <mxGeometry relative="1" as="geometry">
            <mxPoint x="1110.44" y="600" as="targetPoint" />
            <Array as="points">
              <mxPoint x="1110.24" y="491" />
            </Array>
          </mxGeometry>
        </mxCell>
        <mxCell id="nM7WRYUH7kIRdtRXSgoU-133" value="NO" style="edgeLabel;html=1;align=center;verticalAlign=middle;resizable=0;points=[];" parent="nM7WRYUH7kIRdtRXSgoU-132" vertex="1" connectable="0">
          <mxGeometry x="0.2668" y="5" relative="1" as="geometry">
            <mxPoint x="-5" as="offset" />
          </mxGeometry>
        </mxCell>
        <mxCell id="nM7WRYUH7kIRdtRXSgoU-134" value="" style="edgeStyle=orthogonalEdgeStyle;rounded=0;orthogonalLoop=1;jettySize=auto;html=1;" parent="WIyWlLk6GJQsqaUBKTNV-1" source="nM7WRYUH7kIRdtRXSgoU-136" target="nM7WRYUH7kIRdtRXSgoU-141" edge="1">
          <mxGeometry relative="1" as="geometry">
            <mxPoint x="1409.9999999999998" y="849" as="targetPoint" />
            <Array as="points">
              <mxPoint x="1409.9999999999998" y="493" />
            </Array>
          </mxGeometry>
        </mxCell>
        <mxCell id="nM7WRYUH7kIRdtRXSgoU-135" value="SI" style="edgeLabel;html=1;align=center;verticalAlign=middle;resizable=0;points=[];" parent="nM7WRYUH7kIRdtRXSgoU-134" vertex="1" connectable="0">
          <mxGeometry x="0.0506" y="-1" relative="1" as="geometry">
            <mxPoint as="offset" />
          </mxGeometry>
        </mxCell>
        <mxCell id="nM7WRYUH7kIRdtRXSgoU-136" value="Â¿Hay resultado&amp;nbsp;&lt;div&gt;para esa key?&lt;/div&gt;" style="rhombus;whiteSpace=wrap;html=1;" parent="WIyWlLk6GJQsqaUBKTNV-1" vertex="1">
          <mxGeometry x="1199.9999999999998" y="431.5" width="140" height="122.5" as="geometry" />
        </mxCell>
        <mxCell id="nM7WRYUH7kIRdtRXSgoU-157" value="" style="edgeStyle=orthogonalEdgeStyle;rounded=0;orthogonalLoop=1;jettySize=auto;html=1;" parent="WIyWlLk6GJQsqaUBKTNV-1" source="nM7WRYUH7kIRdtRXSgoU-139" target="nM7WRYUH7kIRdtRXSgoU-156" edge="1">
          <mxGeometry relative="1" as="geometry" />
        </mxCell>
        <mxCell id="nM7WRYUH7kIRdtRXSgoU-139" value="&lt;b&gt;selling_points_db&lt;/b&gt;&lt;div&gt;&lt;b&gt;(sellingPoints)&lt;/b&gt;&lt;/div&gt;" style="shape=cylinder3;whiteSpace=wrap;html=1;boundedLbl=1;backgroundOutline=1;size=15;" parent="WIyWlLk6GJQsqaUBKTNV-1" vertex="1">
          <mxGeometry x="1049.9999999999998" y="714" width="120" height="105" as="geometry" />
        </mxCell>
        <mxCell id="nM7WRYUH7kIRdtRXSgoU-141" value="&lt;b&gt;SellingPointsController&lt;/b&gt;&lt;div&gt;&lt;b&gt;&lt;br&gt;&lt;/b&gt;&lt;/div&gt;&lt;div&gt;Se devuelve la lista&amp;nbsp;&lt;/div&gt;&lt;div&gt;hallada al front.&lt;/div&gt;" style="ellipse;whiteSpace=wrap;html=1;" parent="WIyWlLk6GJQsqaUBKTNV-1" vertex="1">
          <mxGeometry x="1335.2399999999996" y="854.63" width="150" height="151.25" as="geometry" />
        </mxCell>
        <mxCell id="nM7WRYUH7kIRdtRXSgoU-144" value="&lt;b&gt;SellingPointsControl&lt;/b&gt;&lt;div&gt;&lt;b&gt;&lt;br&gt;&lt;/b&gt;&lt;/div&gt;&lt;div&gt;Se devuelve al front un Crated&lt;/div&gt;" style="ellipse;whiteSpace=wrap;html=1;" parent="WIyWlLk6GJQsqaUBKTNV-1" vertex="1">
          <mxGeometry x="1032.4400000000003" y="1050" width="155.12" height="140" as="geometry" />
        </mxCell>
        <mxCell id="nM7WRYUH7kIRdtRXSgoU-155" value="" style="edgeStyle=orthogonalEdgeStyle;rounded=0;orthogonalLoop=1;jettySize=auto;html=1;" parent="WIyWlLk6GJQsqaUBKTNV-1" source="nM7WRYUH7kIRdtRXSgoU-153" target="nM7WRYUH7kIRdtRXSgoU-139" edge="1">
          <mxGeometry relative="1" as="geometry" />
        </mxCell>
        <mxCell id="nM7WRYUH7kIRdtRXSgoU-153" value="&lt;div&gt;&lt;b&gt;SellingPointsService&lt;/b&gt;&lt;/div&gt;&lt;div&gt;&lt;br&gt;&lt;/div&gt;Se consulta por valores existentes&lt;span style=&quot;background-color: transparent; color: light-dark(rgb(0, 0, 0), rgb(255, 255, 255));&quot;&gt;&amp;nbsp;en MongoDB&lt;/span&gt;" style="shape=parallelogram;perimeter=parallelogramPerimeter;whiteSpace=wrap;html=1;fixedSize=1;" parent="WIyWlLk6GJQsqaUBKTNV-1" vertex="1">
          <mxGeometry x="1020" y="605" width="180" height="70" as="geometry" />
        </mxCell>
        <mxCell id="nM7WRYUH7kIRdtRXSgoU-158" value="" style="edgeStyle=orthogonalEdgeStyle;rounded=0;orthogonalLoop=1;jettySize=auto;html=1;" parent="WIyWlLk6GJQsqaUBKTNV-1" source="nM7WRYUH7kIRdtRXSgoU-156" target="nM7WRYUH7kIRdtRXSgoU-144" edge="1">
          <mxGeometry relative="1" as="geometry" />
        </mxCell>
        <mxCell id="nM7WRYUH7kIRdtRXSgoU-156" value="&lt;div&gt;&lt;b style=&quot;background-color: transparent; color: light-dark(rgb(0, 0, 0), rgb(255, 255, 255));&quot;&gt;Redis&lt;/b&gt;&lt;/div&gt;Se actualizan los&lt;div&gt;&amp;nbsp;valores en Redis con TTL&lt;/div&gt;" style="shape=parallelogram;perimeter=parallelogramPerimeter;whiteSpace=wrap;html=1;fixedSize=1;" parent="WIyWlLk6GJQsqaUBKTNV-1" vertex="1">
          <mxGeometry x="1020" y="900" width="180" height="70" as="geometry" />
        </mxCell>
        <mxCell id="nM7WRYUH7kIRdtRXSgoU-159" value="" style="edgeStyle=orthogonalEdgeStyle;rounded=0;orthogonalLoop=1;jettySize=auto;html=1;" parent="WIyWlLk6GJQsqaUBKTNV-1" source="nM7WRYUH7kIRdtRXSgoU-160" target="nM7WRYUH7kIRdtRXSgoU-162" edge="1">
          <mxGeometry relative="1" as="geometry" />
        </mxCell>
        <mxCell id="nM7WRYUH7kIRdtRXSgoU-160" value="Inicio&amp;nbsp;&lt;div&gt;Actualizar un&lt;/div&gt;&lt;div&gt;punto de venta&lt;/div&gt;" style="ellipse;whiteSpace=wrap;html=1;" parent="WIyWlLk6GJQsqaUBKTNV-1" vertex="1">
          <mxGeometry x="2260.44" y="20.35" width="120" height="80" as="geometry" />
        </mxCell>
        <mxCell id="nM7WRYUH7kIRdtRXSgoU-161" value="" style="edgeStyle=orthogonalEdgeStyle;rounded=0;orthogonalLoop=1;jettySize=auto;html=1;" parent="WIyWlLk6GJQsqaUBKTNV-1" source="nM7WRYUH7kIRdtRXSgoU-162" edge="1">
          <mxGeometry relative="1" as="geometry">
            <mxPoint x="2320.44" y="278.35" as="targetPoint" />
          </mxGeometry>
        </mxCell>
        <mxCell id="nM7WRYUH7kIRdtRXSgoU-162" value="&lt;div&gt;&lt;b&gt;SellingPointController&lt;/b&gt;&lt;/div&gt;&lt;div&gt;&lt;br&gt;&lt;/div&gt;Solicitud de creaciÃ³n&lt;div&gt;(&lt;span style=&quot;font-family: Consolas; font-size: 10pt; white-space: pre; background-color: rgb(255, 255, 255); color: light-dark(rgb(0, 0, 0), rgb(255, 255, 255));&quot;&gt;updateSellingPoint)&lt;/span&gt;&lt;/div&gt;" style="rounded=1;whiteSpace=wrap;html=1;fontSize=12;glass=0;strokeWidth=1;shadow=0;" parent="WIyWlLk6GJQsqaUBKTNV-1" vertex="1">
          <mxGeometry x="2245.44" y="140" width="150" height="80" as="geometry" />
        </mxCell>
        <mxCell id="nM7WRYUH7kIRdtRXSgoU-163" value="" style="edgeStyle=orthogonalEdgeStyle;rounded=0;orthogonalLoop=1;jettySize=auto;html=1;entryX=0.5;entryY=0;entryDx=0;entryDy=0;" parent="WIyWlLk6GJQsqaUBKTNV-1" source="nM7WRYUH7kIRdtRXSgoU-164" target="nM7WRYUH7kIRdtRXSgoU-169" edge="1">
          <mxGeometry relative="1" as="geometry">
            <mxPoint x="2325.4399999999996" y="405.34999999999957" as="targetPoint" />
          </mxGeometry>
        </mxCell>
        <mxCell id="nM7WRYUH7kIRdtRXSgoU-164" value="&lt;div&gt;&lt;b&gt;SellingPointsService&lt;/b&gt;&lt;/div&gt;&lt;div&gt;&lt;br&gt;&lt;/div&gt;Se consulta por&amp;nbsp;&lt;div&gt;el id en Mongo&lt;/div&gt;" style="shape=parallelogram;perimeter=parallelogramPerimeter;whiteSpace=wrap;html=1;fixedSize=1;" parent="WIyWlLk6GJQsqaUBKTNV-1" vertex="1">
          <mxGeometry x="2235.44" y="280.35" width="180" height="70" as="geometry" />
        </mxCell>
        <mxCell id="nM7WRYUH7kIRdtRXSgoU-165" value="" style="edgeStyle=orthogonalEdgeStyle;rounded=0;orthogonalLoop=1;jettySize=auto;html=1;" parent="WIyWlLk6GJQsqaUBKTNV-1" source="nM7WRYUH7kIRdtRXSgoU-169" target="nM7WRYUH7kIRdtRXSgoU-183" edge="1">
          <mxGeometry relative="1" as="geometry">
            <mxPoint x="2165.44" y="620" as="targetPoint" />
            <Array as="points">
              <mxPoint x="2165.44" y="502" />
            </Array>
          </mxGeometry>
        </mxCell>
        <mxCell id="nM7WRYUH7kIRdtRXSgoU-166" value="SI" style="edgeLabel;html=1;align=center;verticalAlign=middle;resizable=0;points=[];" parent="nM7WRYUH7kIRdtRXSgoU-165" vertex="1" connectable="0">
          <mxGeometry x="0.2668" y="5" relative="1" as="geometry">
            <mxPoint x="-5" as="offset" />
          </mxGeometry>
        </mxCell>
        <mxCell id="nM7WRYUH7kIRdtRXSgoU-167" value="" style="edgeStyle=orthogonalEdgeStyle;rounded=0;orthogonalLoop=1;jettySize=auto;html=1;" parent="WIyWlLk6GJQsqaUBKTNV-1" source="nM7WRYUH7kIRdtRXSgoU-169" target="nM7WRYUH7kIRdtRXSgoU-178" edge="1">
          <mxGeometry relative="1" as="geometry" />
        </mxCell>
        <mxCell id="nM7WRYUH7kIRdtRXSgoU-168" value="SI" style="edgeLabel;html=1;align=center;verticalAlign=middle;resizable=0;points=[];" parent="nM7WRYUH7kIRdtRXSgoU-167" vertex="1" connectable="0">
          <mxGeometry x="0.0506" y="-1" relative="1" as="geometry">
            <mxPoint as="offset" />
          </mxGeometry>
        </mxCell>
        <mxCell id="nM7WRYUH7kIRdtRXSgoU-169" value="Â¿EncontrÃ³ un valor?" style="rhombus;whiteSpace=wrap;html=1;" parent="WIyWlLk6GJQsqaUBKTNV-1" vertex="1">
          <mxGeometry x="2255.44" y="440.35" width="140" height="122.5" as="geometry" />
        </mxCell>
        <mxCell id="nM7WRYUH7kIRdtRXSgoU-171" value="" style="edgeStyle=orthogonalEdgeStyle;rounded=0;orthogonalLoop=1;jettySize=auto;html=1;entryX=0.5;entryY=0;entryDx=0;entryDy=0;" parent="WIyWlLk6GJQsqaUBKTNV-1" source="nM7WRYUH7kIRdtRXSgoU-172" target="nM7WRYUH7kIRdtRXSgoU-185" edge="1">
          <mxGeometry relative="1" as="geometry">
            <mxPoint x="2170.4399999999996" y="880" as="targetPoint" />
          </mxGeometry>
        </mxCell>
        <mxCell id="nM7WRYUH7kIRdtRXSgoU-172" value="&lt;b&gt;selling_points_db&lt;/b&gt;&lt;div&gt;&lt;b&gt;(sellingPoints)&lt;/b&gt;&lt;/div&gt;" style="shape=cylinder3;whiteSpace=wrap;html=1;boundedLbl=1;backgroundOutline=1;size=15;" parent="WIyWlLk6GJQsqaUBKTNV-1" vertex="1">
          <mxGeometry x="2110.44" y="714" width="120" height="105" as="geometry" />
        </mxCell>
        <mxCell id="nM7WRYUH7kIRdtRXSgoU-177" style="edgeStyle=orthogonalEdgeStyle;rounded=0;orthogonalLoop=1;jettySize=auto;html=1;entryX=0.5;entryY=0;entryDx=0;entryDy=0;" parent="WIyWlLk6GJQsqaUBKTNV-1" source="nM7WRYUH7kIRdtRXSgoU-178" target="nM7WRYUH7kIRdtRXSgoU-179" edge="1">
          <mxGeometry relative="1" as="geometry" />
        </mxCell>
        <mxCell id="nM7WRYUH7kIRdtRXSgoU-178" value="&lt;div&gt;&lt;b&gt;SellingPointsService&lt;/b&gt;&lt;/div&gt;&lt;div&gt;&lt;br&gt;&lt;/div&gt;Se devuelve al controller vacÃ­o" style="whiteSpace=wrap;html=1;" parent="WIyWlLk6GJQsqaUBKTNV-1" vertex="1">
          <mxGeometry x="2405.68" y="600" width="120" height="60" as="geometry" />
        </mxCell>
        <mxCell id="nM7WRYUH7kIRdtRXSgoU-179" value="&lt;b&gt;SellingPointsController&lt;/b&gt;&lt;div&gt;&lt;b&gt;&lt;br&gt;&lt;/b&gt;&lt;/div&gt;&lt;div&gt;Se devuelve un Bad request al front.&lt;/div&gt;" style="ellipse;whiteSpace=wrap;html=1;" parent="WIyWlLk6GJQsqaUBKTNV-1" vertex="1">
          <mxGeometry x="2390.68" y="865.63" width="150" height="151.25" as="geometry" />
        </mxCell>
        <mxCell id="nM7WRYUH7kIRdtRXSgoU-184" value="" style="edgeStyle=orthogonalEdgeStyle;rounded=0;orthogonalLoop=1;jettySize=auto;html=1;" parent="WIyWlLk6GJQsqaUBKTNV-1" source="nM7WRYUH7kIRdtRXSgoU-183" target="nM7WRYUH7kIRdtRXSgoU-172" edge="1">
          <mxGeometry relative="1" as="geometry" />
        </mxCell>
        <mxCell id="nM7WRYUH7kIRdtRXSgoU-183" value="&lt;div&gt;&lt;b&gt;SellingPointsService&lt;/b&gt;&lt;/div&gt;&lt;div&gt;&lt;br&gt;&lt;/div&gt;Se actualiza el&amp;nbsp;&lt;div&gt;mismo en la BD&lt;/div&gt;" style="shape=parallelogram;perimeter=parallelogramPerimeter;whiteSpace=wrap;html=1;fixedSize=1;" parent="WIyWlLk6GJQsqaUBKTNV-1" vertex="1">
          <mxGeometry x="2080.44" y="590" width="180" height="70" as="geometry" />
        </mxCell>
        <mxCell id="nM7WRYUH7kIRdtRXSgoU-188" value="" style="edgeStyle=orthogonalEdgeStyle;rounded=0;orthogonalLoop=1;jettySize=auto;html=1;" parent="WIyWlLk6GJQsqaUBKTNV-1" source="nM7WRYUH7kIRdtRXSgoU-185" target="nM7WRYUH7kIRdtRXSgoU-187" edge="1">
          <mxGeometry relative="1" as="geometry" />
        </mxCell>
        <mxCell id="nM7WRYUH7kIRdtRXSgoU-185" value="&lt;div&gt;&lt;b style=&quot;background-color: transparent; color: light-dark(rgb(0, 0, 0), rgb(255, 255, 255));&quot;&gt;Redis&lt;/b&gt;&lt;/div&gt;Se actualiza el&lt;div&gt;&amp;nbsp;valor en Redis&lt;/div&gt;" style="shape=parallelogram;perimeter=parallelogramPerimeter;whiteSpace=wrap;html=1;fixedSize=1;" parent="WIyWlLk6GJQsqaUBKTNV-1" vertex="1">
          <mxGeometry x="2080.44" y="890" width="180" height="70" as="geometry" />
        </mxCell>
        <mxCell id="nM7WRYUH7kIRdtRXSgoU-187" value="&lt;b&gt;SellingPointsControl&lt;/b&gt;&lt;div&gt;&lt;b&gt;&lt;br&gt;&lt;/b&gt;&lt;/div&gt;&lt;div&gt;Se devuelve al front un Ok&lt;/div&gt;" style="ellipse;whiteSpace=wrap;html=1;" parent="WIyWlLk6GJQsqaUBKTNV-1" vertex="1">
          <mxGeometry x="2092.88" y="1050" width="155.12" height="140" as="geometry" />
        </mxCell>
        <mxCell id="nM7WRYUH7kIRdtRXSgoU-189" value="&lt;h1&gt;Puntos de costo&lt;/h1&gt;" style="text;html=1;align=center;verticalAlign=middle;whiteSpace=wrap;rounded=0;" parent="WIyWlLk6GJQsqaUBKTNV-1" vertex="1">
          <mxGeometry x="4059.4399999999996" y="-120" width="200" height="30" as="geometry" />
        </mxCell>
        <mxCell id="nM7WRYUH7kIRdtRXSgoU-190" value="" style="edgeStyle=orthogonalEdgeStyle;rounded=0;orthogonalLoop=1;jettySize=auto;html=1;" parent="WIyWlLk6GJQsqaUBKTNV-1" source="nM7WRYUH7kIRdtRXSgoU-191" target="nM7WRYUH7kIRdtRXSgoU-193" edge="1">
          <mxGeometry relative="1" as="geometry" />
        </mxCell>
        <mxCell id="nM7WRYUH7kIRdtRXSgoU-191" value="Inicio&amp;nbsp;&lt;div&gt;Remover un costo&amp;nbsp;&lt;/div&gt;" style="ellipse;whiteSpace=wrap;html=1;" parent="WIyWlLk6GJQsqaUBKTNV-1" vertex="1">
          <mxGeometry x="4144.4400000000005" y="20.35" width="120" height="80" as="geometry" />
        </mxCell>
        <mxCell id="nM7WRYUH7kIRdtRXSgoU-192" value="" style="edgeStyle=orthogonalEdgeStyle;rounded=0;orthogonalLoop=1;jettySize=auto;html=1;" parent="WIyWlLk6GJQsqaUBKTNV-1" source="nM7WRYUH7kIRdtRXSgoU-193" edge="1">
          <mxGeometry relative="1" as="geometry">
            <mxPoint x="4204.4400000000005" y="278.35" as="targetPoint" />
          </mxGeometry>
        </mxCell>
        <mxCell id="nM7WRYUH7kIRdtRXSgoU-193" value="&lt;div&gt;&lt;b&gt;SellingCostController&lt;/b&gt;&lt;/div&gt;&lt;div&gt;&lt;br&gt;&lt;/div&gt;Solicitud de delete&lt;div&gt;(&lt;span style=&quot;font-family: Consolas; font-size: 10pt; white-space: pre; background-color: rgb(255, 255, 255); color: light-dark(rgb(0, 0, 0), rgb(255, 255, 255));&quot;&gt;&lt;span style=&quot;padding: 0px 0px 0px 2px;&quot;&gt;&lt;span style=&quot;font-size: 10pt;&quot;&gt;deleteSellingCost&lt;/span&gt;&lt;/span&gt;)&lt;/span&gt;&lt;/div&gt;" style="rounded=1;whiteSpace=wrap;html=1;fontSize=12;glass=0;strokeWidth=1;shadow=0;" parent="WIyWlLk6GJQsqaUBKTNV-1" vertex="1">
          <mxGeometry x="4129.4400000000005" y="140" width="150" height="80" as="geometry" />
        </mxCell>
        <mxCell id="nM7WRYUH7kIRdtRXSgoU-287" value="" style="edgeStyle=orthogonalEdgeStyle;rounded=0;orthogonalLoop=1;jettySize=auto;html=1;" parent="WIyWlLk6GJQsqaUBKTNV-1" source="nM7WRYUH7kIRdtRXSgoU-195" target="nM7WRYUH7kIRdtRXSgoU-286" edge="1">
          <mxGeometry relative="1" as="geometry" />
        </mxCell>
        <mxCell id="nM7WRYUH7kIRdtRXSgoU-195" value="&lt;div&gt;&lt;b&gt;SellingPointsService&lt;/b&gt;&lt;/div&gt;&lt;div&gt;&lt;br&gt;&lt;/div&gt;Se consulta la BD usando el punto de comienzo y fin" style="shape=parallelogram;perimeter=parallelogramPerimeter;whiteSpace=wrap;html=1;fixedSize=1;" parent="WIyWlLk6GJQsqaUBKTNV-1" vertex="1">
          <mxGeometry x="4119.4400000000005" y="280.35" width="180" height="70" as="geometry" />
        </mxCell>
        <mxCell id="nM7WRYUH7kIRdtRXSgoU-196" value="" style="edgeStyle=orthogonalEdgeStyle;rounded=0;orthogonalLoop=1;jettySize=auto;html=1;entryX=0.5;entryY=0;entryDx=0;entryDy=0;" parent="WIyWlLk6GJQsqaUBKTNV-1" source="nM7WRYUH7kIRdtRXSgoU-200" target="nM7WRYUH7kIRdtRXSgoU-202" edge="1">
          <mxGeometry relative="1" as="geometry">
            <mxPoint x="4049.6800000000003" y="815.97" as="targetPoint" />
            <Array as="points">
              <mxPoint x="4049.6800000000003" y="657.97" />
            </Array>
          </mxGeometry>
        </mxCell>
        <mxCell id="nM7WRYUH7kIRdtRXSgoU-292" value="SI" style="edgeLabel;html=1;align=center;verticalAlign=middle;resizable=0;points=[];" parent="nM7WRYUH7kIRdtRXSgoU-196" vertex="1" connectable="0">
          <mxGeometry x="0.2991" y="-1" relative="1" as="geometry">
            <mxPoint y="-1" as="offset" />
          </mxGeometry>
        </mxCell>
        <mxCell id="nM7WRYUH7kIRdtRXSgoU-198" value="" style="edgeStyle=orthogonalEdgeStyle;rounded=0;orthogonalLoop=1;jettySize=auto;html=1;entryX=0.5;entryY=0;entryDx=0;entryDy=0;" parent="WIyWlLk6GJQsqaUBKTNV-1" source="nM7WRYUH7kIRdtRXSgoU-200" target="nM7WRYUH7kIRdtRXSgoU-211" edge="1">
          <mxGeometry relative="1" as="geometry">
            <mxPoint x="4349.692307692308" y="755.9700000000007" as="targetPoint" />
            <Array as="points">
              <mxPoint x="4354" y="658" />
            </Array>
          </mxGeometry>
        </mxCell>
        <mxCell id="nM7WRYUH7kIRdtRXSgoU-291" value="NO" style="edgeLabel;html=1;align=center;verticalAlign=middle;resizable=0;points=[];" parent="nM7WRYUH7kIRdtRXSgoU-198" vertex="1" connectable="0">
          <mxGeometry x="0.1986" y="-1" relative="1" as="geometry">
            <mxPoint as="offset" />
          </mxGeometry>
        </mxCell>
        <mxCell id="nM7WRYUH7kIRdtRXSgoU-200" value="Â¿Ya hay un resultado para esos valores?" style="rhombus;whiteSpace=wrap;html=1;" parent="WIyWlLk6GJQsqaUBKTNV-1" vertex="1">
          <mxGeometry x="4139.4400000000005" y="596.32" width="140" height="122.5" as="geometry" />
        </mxCell>
        <mxCell id="nM7WRYUH7kIRdtRXSgoU-201" value="" style="edgeStyle=orthogonalEdgeStyle;rounded=0;orthogonalLoop=1;jettySize=auto;html=1;" parent="WIyWlLk6GJQsqaUBKTNV-1" source="nM7WRYUH7kIRdtRXSgoU-202" target="nM7WRYUH7kIRdtRXSgoU-204" edge="1">
          <mxGeometry relative="1" as="geometry" />
        </mxCell>
        <mxCell id="nM7WRYUH7kIRdtRXSgoU-202" value="&lt;div&gt;&lt;b&gt;SellingCostController&lt;/b&gt;&lt;/div&gt;&lt;div&gt;&lt;br&gt;&lt;/div&gt;Se elimina de&lt;span style=&quot;background-color: transparent; color: light-dark(rgb(0, 0, 0), rgb(255, 255, 255));&quot;&gt;&amp;nbsp;MongoDB&lt;/span&gt;" style="shape=parallelogram;perimeter=parallelogramPerimeter;whiteSpace=wrap;html=1;fixedSize=1;" parent="WIyWlLk6GJQsqaUBKTNV-1" vertex="1">
          <mxGeometry x="3959.44" y="755.97" width="180" height="70" as="geometry" />
        </mxCell>
        <mxCell id="nM7WRYUH7kIRdtRXSgoU-203" value="" style="edgeStyle=orthogonalEdgeStyle;rounded=0;orthogonalLoop=1;jettySize=auto;html=1;entryX=0.5;entryY=0;entryDx=0;entryDy=0;" parent="WIyWlLk6GJQsqaUBKTNV-1" source="nM7WRYUH7kIRdtRXSgoU-204" target="nM7WRYUH7kIRdtRXSgoU-215" edge="1">
          <mxGeometry relative="1" as="geometry">
            <mxPoint x="4049.4400000000005" y="1035.9700000000007" as="targetPoint" />
          </mxGeometry>
        </mxCell>
        <mxCell id="nM7WRYUH7kIRdtRXSgoU-204" value="&lt;b&gt;selling_points_db&lt;/b&gt;&lt;div&gt;&lt;b&gt;(sellingCosts)&lt;/b&gt;&lt;/div&gt;" style="shape=cylinder3;whiteSpace=wrap;html=1;boundedLbl=1;backgroundOutline=1;size=15;" parent="WIyWlLk6GJQsqaUBKTNV-1" vertex="1">
          <mxGeometry x="3989.44" y="880.97" width="120" height="105" as="geometry" />
        </mxCell>
        <mxCell id="nM7WRYUH7kIRdtRXSgoU-211" value="&lt;b&gt;SellingPointsController&lt;/b&gt;&lt;div&gt;&lt;b&gt;&lt;br&gt;&lt;/b&gt;&lt;/div&gt;&lt;div&gt;Se devuelve un Not found al front.&lt;/div&gt;" style="ellipse;whiteSpace=wrap;html=1;" parent="WIyWlLk6GJQsqaUBKTNV-1" vertex="1">
          <mxGeometry x="4279.4400000000005" y="780.0699999999999" width="150" height="151.25" as="geometry" />
        </mxCell>
        <mxCell id="nM7WRYUH7kIRdtRXSgoU-294" value="" style="edgeStyle=orthogonalEdgeStyle;rounded=0;orthogonalLoop=1;jettySize=auto;html=1;" parent="WIyWlLk6GJQsqaUBKTNV-1" source="nM7WRYUH7kIRdtRXSgoU-215" target="nM7WRYUH7kIRdtRXSgoU-293" edge="1">
          <mxGeometry relative="1" as="geometry" />
        </mxCell>
        <mxCell id="nM7WRYUH7kIRdtRXSgoU-215" value="&lt;div&gt;&lt;b&gt;SellingPointsService&lt;/b&gt;&lt;/div&gt;&lt;div&gt;&lt;br&gt;&lt;/div&gt;Se consulta si&amp;nbsp;&lt;div&gt;el valor existe en Redis&lt;br&gt;&lt;/div&gt;" style="shape=parallelogram;perimeter=parallelogramPerimeter;whiteSpace=wrap;html=1;fixedSize=1;" parent="WIyWlLk6GJQsqaUBKTNV-1" vertex="1">
          <mxGeometry x="3959.44" y="1046.32" width="180" height="70" as="geometry" />
        </mxCell>
        <mxCell id="nM7WRYUH7kIRdtRXSgoU-216" value="&lt;b&gt;SellingPointsControl&lt;/b&gt;&lt;div&gt;&lt;b&gt;&lt;br&gt;&lt;/b&gt;&lt;/div&gt;&lt;div&gt;Se devuelve al front un No Content&lt;/div&gt;" style="ellipse;whiteSpace=wrap;html=1;" parent="WIyWlLk6GJQsqaUBKTNV-1" vertex="1">
          <mxGeometry x="3970.52" y="1470" width="155.12" height="140" as="geometry" />
        </mxCell>
        <mxCell id="nM7WRYUH7kIRdtRXSgoU-217" value="" style="edgeStyle=orthogonalEdgeStyle;rounded=0;orthogonalLoop=1;jettySize=auto;html=1;" parent="WIyWlLk6GJQsqaUBKTNV-1" source="nM7WRYUH7kIRdtRXSgoU-218" target="nM7WRYUH7kIRdtRXSgoU-220" edge="1">
          <mxGeometry relative="1" as="geometry" />
        </mxCell>
        <mxCell id="nM7WRYUH7kIRdtRXSgoU-218" value="Inicio&amp;nbsp;&lt;div&gt;Consulta de costo mÃ­nimo&lt;/div&gt;" style="ellipse;whiteSpace=wrap;html=1;" parent="WIyWlLk6GJQsqaUBKTNV-1" vertex="1">
          <mxGeometry x="5154.4400000000005" y="16.67" width="120" height="80" as="geometry" />
        </mxCell>
        <mxCell id="nM7WRYUH7kIRdtRXSgoU-219" value="" style="edgeStyle=orthogonalEdgeStyle;rounded=0;orthogonalLoop=1;jettySize=auto;html=1;" parent="WIyWlLk6GJQsqaUBKTNV-1" source="nM7WRYUH7kIRdtRXSgoU-220" edge="1">
          <mxGeometry relative="1" as="geometry">
            <mxPoint x="5214.4400000000005" y="274.67" as="targetPoint" />
          </mxGeometry>
        </mxCell>
        <mxCell id="nM7WRYUH7kIRdtRXSgoU-220" value="&lt;div&gt;&lt;b&gt;SellingCostsController&lt;/b&gt;&lt;/div&gt;&lt;div&gt;&lt;br&gt;&lt;/div&gt;Solicitud de consulta de costo mÃ­nimo entre dos puntos no adyacentes(&lt;span style=&quot;background-color: rgb(255, 255, 255); padding: 0px 0px 0px 2px;&quot;&gt;&lt;span style=&quot;padding: 0px 0px 0px 2px;&quot;&gt;&lt;span style=&quot;font-family: Consolas; font-size: 10pt; white-space: pre;&quot;&gt;getFullCheapestPath&lt;/span&gt;&lt;/span&gt;&lt;span style=&quot;font-family: Consolas; font-size: 10pt; white-space: pre;&quot;&gt;)&lt;/span&gt;&lt;/span&gt;" style="rounded=1;whiteSpace=wrap;html=1;fontSize=12;glass=0;strokeWidth=1;shadow=0;" parent="WIyWlLk6GJQsqaUBKTNV-1" vertex="1">
          <mxGeometry x="5043.08" y="140" width="342.72" height="80" as="geometry" />
        </mxCell>
        <mxCell id="nM7WRYUH7kIRdtRXSgoU-221" value="" style="edgeStyle=orthogonalEdgeStyle;rounded=0;orthogonalLoop=1;jettySize=auto;html=1;entryX=0.5;entryY=0;entryDx=0;entryDy=0;" parent="WIyWlLk6GJQsqaUBKTNV-1" source="nM7WRYUH7kIRdtRXSgoU-222" target="nM7WRYUH7kIRdtRXSgoU-227" edge="1">
          <mxGeometry relative="1" as="geometry">
            <mxPoint x="5219.4400000000005" y="401.66999999999956" as="targetPoint" />
          </mxGeometry>
        </mxCell>
        <mxCell id="nM7WRYUH7kIRdtRXSgoU-222" value="&lt;div&gt;&lt;b&gt;SellingCostsController&lt;/b&gt;&lt;/div&gt;&lt;div&gt;&lt;br&gt;&lt;/div&gt;Se consulta si el valor&amp;nbsp;&lt;div&gt;a obtener ya existe en Redis&lt;/div&gt;" style="shape=parallelogram;perimeter=parallelogramPerimeter;whiteSpace=wrap;html=1;fixedSize=1;" parent="WIyWlLk6GJQsqaUBKTNV-1" vertex="1">
          <mxGeometry x="5129.4400000000005" y="266.32" width="180" height="140" as="geometry" />
        </mxCell>
        <mxCell id="nM7WRYUH7kIRdtRXSgoU-223" value="" style="edgeStyle=orthogonalEdgeStyle;rounded=0;orthogonalLoop=1;jettySize=auto;html=1;entryX=0.5;entryY=0;entryDx=0;entryDy=0;" parent="WIyWlLk6GJQsqaUBKTNV-1" source="nM7WRYUH7kIRdtRXSgoU-227" target="nM7WRYUH7kIRdtRXSgoU-229" edge="1">
          <mxGeometry relative="1" as="geometry">
            <mxPoint x="5059.68" y="656.32" as="targetPoint" />
            <Array as="points">
              <mxPoint x="5059.68" y="498.32000000000005" />
            </Array>
          </mxGeometry>
        </mxCell>
        <mxCell id="nM7WRYUH7kIRdtRXSgoU-224" value="NO" style="edgeLabel;html=1;align=center;verticalAlign=middle;resizable=0;points=[];" parent="nM7WRYUH7kIRdtRXSgoU-223" vertex="1" connectable="0">
          <mxGeometry x="0.2668" y="5" relative="1" as="geometry">
            <mxPoint x="-5" as="offset" />
          </mxGeometry>
        </mxCell>
        <mxCell id="nM7WRYUH7kIRdtRXSgoU-225" value="" style="edgeStyle=orthogonalEdgeStyle;rounded=0;orthogonalLoop=1;jettySize=auto;html=1;" parent="WIyWlLk6GJQsqaUBKTNV-1" source="nM7WRYUH7kIRdtRXSgoU-227" target="nM7WRYUH7kIRdtRXSgoU-232" edge="1">
          <mxGeometry relative="1" as="geometry">
            <mxPoint x="5359.4400000000005" y="856.32" as="targetPoint" />
            <Array as="points">
              <mxPoint x="5359.4400000000005" y="500.32000000000005" />
            </Array>
          </mxGeometry>
        </mxCell>
        <mxCell id="nM7WRYUH7kIRdtRXSgoU-226" value="SI" style="edgeLabel;html=1;align=center;verticalAlign=middle;resizable=0;points=[];" parent="nM7WRYUH7kIRdtRXSgoU-225" vertex="1" connectable="0">
          <mxGeometry x="0.0506" y="-1" relative="1" as="geometry">
            <mxPoint as="offset" />
          </mxGeometry>
        </mxCell>
        <mxCell id="nM7WRYUH7kIRdtRXSgoU-227" value="Â¿Ya hay un resultado para ese key?" style="rhombus;whiteSpace=wrap;html=1;" parent="WIyWlLk6GJQsqaUBKTNV-1" vertex="1">
          <mxGeometry x="5149.4400000000005" y="438.82" width="140" height="122.5" as="geometry" />
        </mxCell>
        <mxCell id="nM7WRYUH7kIRdtRXSgoU-228" value="" style="edgeStyle=orthogonalEdgeStyle;rounded=0;orthogonalLoop=1;jettySize=auto;html=1;" parent="WIyWlLk6GJQsqaUBKTNV-1" source="nM7WRYUH7kIRdtRXSgoU-229" target="nM7WRYUH7kIRdtRXSgoU-230" edge="1">
          <mxGeometry relative="1" as="geometry" />
        </mxCell>
        <mxCell id="nM7WRYUH7kIRdtRXSgoU-229" value="&lt;div&gt;&lt;b&gt;SellingCostsController&lt;/b&gt;&lt;/div&gt;&lt;div&gt;&lt;br&gt;&lt;/div&gt;Se consultan todos os valores de la base de datos (&lt;span style=&quot;padding: 0px 0px 0px 2px;&quot;&gt;&lt;span style=&quot;font-family: Consolas; font-size: 10pt; white-space: pre;&quot;&gt;&lt;span&gt;getSellingPointsPaths&lt;/span&gt;&lt;span style=&quot;background-color: rgb(212, 212, 212);&quot;&gt;)&lt;/span&gt;&lt;/span&gt;&lt;/span&gt;" style="shape=parallelogram;perimeter=parallelogramPerimeter;whiteSpace=wrap;html=1;fixedSize=1;" parent="WIyWlLk6GJQsqaUBKTNV-1" vertex="1">
          <mxGeometry x="4957.16" y="561.32" width="204.56" height="106.32" as="geometry" />
        </mxCell>
        <mxCell id="nM7WRYUH7kIRdtRXSgoU-230" value="&lt;b&gt;selling_points_db&lt;/b&gt;&lt;div&gt;&lt;b&gt;(sellingCosts)&lt;/b&gt;&lt;/div&gt;" style="shape=cylinder3;whiteSpace=wrap;html=1;boundedLbl=1;backgroundOutline=1;size=15;" parent="WIyWlLk6GJQsqaUBKTNV-1" vertex="1">
          <mxGeometry x="4999.4400000000005" y="721.32" width="120" height="105" as="geometry" />
        </mxCell>
        <mxCell id="nM7WRYUH7kIRdtRXSgoU-231" value="" style="edgeStyle=orthogonalEdgeStyle;rounded=0;orthogonalLoop=1;jettySize=auto;html=1;" parent="WIyWlLk6GJQsqaUBKTNV-1" source="nM7WRYUH7kIRdtRXSgoU-230" target="nM7WRYUH7kIRdtRXSgoU-234" edge="1">
          <mxGeometry relative="1" as="geometry">
            <mxPoint x="5059.44" y="998.8200000000002" as="sourcePoint" />
          </mxGeometry>
        </mxCell>
        <mxCell id="nM7WRYUH7kIRdtRXSgoU-311" value="Se consulta el PathSevice" style="edgeLabel;html=1;align=center;verticalAlign=middle;resizable=0;points=[];" parent="nM7WRYUH7kIRdtRXSgoU-231" vertex="1" connectable="0">
          <mxGeometry x="-0.2939" y="-3" relative="1" as="geometry">
            <mxPoint y="1" as="offset" />
          </mxGeometry>
        </mxCell>
        <mxCell id="nM7WRYUH7kIRdtRXSgoU-232" value="&lt;b&gt;SellingCostsController&lt;/b&gt;&lt;div&gt;&lt;b&gt;&lt;br&gt;&lt;/b&gt;&lt;/div&gt;&lt;div&gt;Se devuelve un ok con el contenido t al front.&lt;/div&gt;" style="ellipse;whiteSpace=wrap;html=1;" parent="WIyWlLk6GJQsqaUBKTNV-1" vertex="1">
          <mxGeometry x="5289.4400000000005" y="714" width="150" height="151.25" as="geometry" />
        </mxCell>
        <mxCell id="nM7WRYUH7kIRdtRXSgoU-314" value="" style="edgeStyle=orthogonalEdgeStyle;rounded=0;orthogonalLoop=1;jettySize=auto;html=1;" parent="WIyWlLk6GJQsqaUBKTNV-1" source="nM7WRYUH7kIRdtRXSgoU-234" target="nM7WRYUH7kIRdtRXSgoU-313" edge="1">
          <mxGeometry relative="1" as="geometry" />
        </mxCell>
        <mxCell id="nM7WRYUH7kIRdtRXSgoU-234" value="&lt;div&gt;&lt;b&gt;PathsService&lt;/b&gt;&lt;/div&gt;&lt;div&gt;&lt;br&gt;&lt;/div&gt;Se calcula y devuelve el camino mÃ¡s barato." style="shape=parallelogram;perimeter=parallelogramPerimeter;whiteSpace=wrap;html=1;fixedSize=1;" parent="WIyWlLk6GJQsqaUBKTNV-1" vertex="1">
          <mxGeometry x="4913.3" y="900" width="292.28" height="80" as="geometry" />
        </mxCell>
        <mxCell id="nM7WRYUH7kIRdtRXSgoU-235" value="&lt;b&gt;SellingCostsController&lt;/b&gt;&lt;div&gt;&lt;b&gt;&lt;br&gt;&lt;/b&gt;&lt;/div&gt;&lt;div&gt;Se devuelve al front un Ok con los valores.&lt;/div&gt;" style="ellipse;whiteSpace=wrap;html=1;" parent="WIyWlLk6GJQsqaUBKTNV-1" vertex="1">
          <mxGeometry x="4981.88" y="1320" width="155.12" height="140" as="geometry" />
        </mxCell>
        <mxCell id="nM7WRYUH7kIRdtRXSgoU-240" value="" style="edgeStyle=orthogonalEdgeStyle;rounded=0;orthogonalLoop=1;jettySize=auto;html=1;" parent="WIyWlLk6GJQsqaUBKTNV-1" source="nM7WRYUH7kIRdtRXSgoU-241" target="nM7WRYUH7kIRdtRXSgoU-235" edge="1">
          <mxGeometry relative="1" as="geometry" />
        </mxCell>
        <mxCell id="nM7WRYUH7kIRdtRXSgoU-241" value="&lt;div&gt;&lt;b style=&quot;background-color: transparent; color: light-dark(rgb(0, 0, 0), rgb(255, 255, 255));&quot;&gt;Redis&lt;/b&gt;&lt;/div&gt;Se actualizan los&lt;div&gt;&amp;nbsp;valores en Redis&lt;/div&gt;" style="shape=parallelogram;perimeter=parallelogramPerimeter;whiteSpace=wrap;html=1;fixedSize=1;" parent="WIyWlLk6GJQsqaUBKTNV-1" vertex="1">
          <mxGeometry x="4969.4400000000005" y="1190" width="180" height="70" as="geometry" />
        </mxCell>
        <mxCell id="nM7WRYUH7kIRdtRXSgoU-242" value="" style="edgeStyle=orthogonalEdgeStyle;rounded=0;orthogonalLoop=1;jettySize=auto;html=1;" parent="WIyWlLk6GJQsqaUBKTNV-1" source="nM7WRYUH7kIRdtRXSgoU-243" target="nM7WRYUH7kIRdtRXSgoU-245" edge="1">
          <mxGeometry relative="1" as="geometry" />
        </mxCell>
        <mxCell id="nM7WRYUH7kIRdtRXSgoU-243" value="Inicio&lt;div&gt;Carga de nuevo costo&lt;/div&gt;" style="ellipse;whiteSpace=wrap;html=1;" parent="WIyWlLk6GJQsqaUBKTNV-1" vertex="1">
          <mxGeometry x="3432" y="19" width="120" height="80" as="geometry" />
        </mxCell>
        <mxCell id="nM7WRYUH7kIRdtRXSgoU-244" value="" style="edgeStyle=orthogonalEdgeStyle;rounded=0;orthogonalLoop=1;jettySize=auto;html=1;" parent="WIyWlLk6GJQsqaUBKTNV-1" source="nM7WRYUH7kIRdtRXSgoU-245" edge="1">
          <mxGeometry relative="1" as="geometry">
            <mxPoint x="3492" y="277.35" as="targetPoint" />
          </mxGeometry>
        </mxCell>
        <mxCell id="nM7WRYUH7kIRdtRXSgoU-245" value="&lt;div&gt;&lt;b&gt;SellingCostController&lt;/b&gt;&lt;/div&gt;&lt;div&gt;&lt;br&gt;&lt;/div&gt;Solicitud de consulta de todos los puntos de venta&lt;div&gt;(&lt;span style=&quot;background-color: rgb(212, 212, 212); font-family: Consolas; font-size: 10pt; white-space: pre; color: light-dark(rgb(0, 0, 0), rgb(255, 255, 255));&quot;&gt;&lt;span style=&quot;background-color: rgb(255, 255, 255); padding: 0px 0px 0px 2px;&quot;&gt;&lt;span style=&quot;font-size: 10pt;&quot;&gt;addSellingCost&lt;/span&gt;&lt;/span&gt;)&lt;/span&gt;&lt;/div&gt;" style="rounded=1;whiteSpace=wrap;html=1;fontSize=12;glass=0;strokeWidth=1;shadow=0;" parent="WIyWlLk6GJQsqaUBKTNV-1" vertex="1">
          <mxGeometry x="3397" y="139.35" width="190" height="80" as="geometry" />
        </mxCell>
        <mxCell id="SR-uzpXWyhXqKQkfDo1B-1" value="" style="edgeStyle=orthogonalEdgeStyle;rounded=0;orthogonalLoop=1;jettySize=auto;html=1;" edge="1" parent="WIyWlLk6GJQsqaUBKTNV-1" source="nM7WRYUH7kIRdtRXSgoU-247" target="SR-uzpXWyhXqKQkfDo1B-0">
          <mxGeometry relative="1" as="geometry" />
        </mxCell>
        <mxCell id="nM7WRYUH7kIRdtRXSgoU-247" value="&lt;div&gt;&lt;b&gt;SellingPointsService&lt;/b&gt;&lt;/div&gt;&lt;div&gt;&lt;br&gt;&lt;/div&gt;Se guarda en&amp;nbsp;&lt;div&gt;Mongo el nuevo costo&lt;/div&gt;" style="shape=parallelogram;perimeter=parallelogramPerimeter;whiteSpace=wrap;html=1;fixedSize=1;" parent="WIyWlLk6GJQsqaUBKTNV-1" vertex="1">
          <mxGeometry x="3407" y="279.35" width="180" height="70" as="geometry" />
        </mxCell>
        <mxCell id="nM7WRYUH7kIRdtRXSgoU-261" value="" style="edgeStyle=orthogonalEdgeStyle;rounded=0;orthogonalLoop=1;jettySize=auto;html=1;" parent="WIyWlLk6GJQsqaUBKTNV-1" source="nM7WRYUH7kIRdtRXSgoU-262" target="nM7WRYUH7kIRdtRXSgoU-264" edge="1">
          <mxGeometry relative="1" as="geometry" />
        </mxCell>
        <mxCell id="nM7WRYUH7kIRdtRXSgoU-262" value="Inicio&amp;nbsp;&lt;div&gt;Consultar puntos de venta adyacentes&lt;br&gt;&lt;/div&gt;" style="ellipse;whiteSpace=wrap;html=1;" parent="WIyWlLk6GJQsqaUBKTNV-1" vertex="1">
          <mxGeometry x="4644.4400000000005" y="30.35" width="120" height="80" as="geometry" />
        </mxCell>
        <mxCell id="nM7WRYUH7kIRdtRXSgoU-263" value="" style="edgeStyle=orthogonalEdgeStyle;rounded=0;orthogonalLoop=1;jettySize=auto;html=1;" parent="WIyWlLk6GJQsqaUBKTNV-1" source="nM7WRYUH7kIRdtRXSgoU-264" edge="1">
          <mxGeometry relative="1" as="geometry">
            <mxPoint x="4704.4400000000005" y="288.35" as="targetPoint" />
          </mxGeometry>
        </mxCell>
        <mxCell id="nM7WRYUH7kIRdtRXSgoU-264" value="&lt;div&gt;&lt;b&gt;SellingCostController&lt;/b&gt;&lt;/div&gt;&lt;div&gt;&lt;br&gt;&lt;/div&gt;Solicitud de consulta adyacentes&lt;div&gt;(&lt;span style=&quot;font-family: Consolas; font-size: 10pt; white-space: pre; background-color: rgb(255, 255, 255); color: light-dark(rgb(0, 0, 0), rgb(255, 255, 255));&quot;&gt;&lt;span style=&quot;padding: 0px 0px 0px 2px;&quot;&gt;&lt;span style=&quot;font-size: 10pt;&quot;&gt;getDirectConnections&lt;/span&gt;&lt;/span&gt;)&lt;/span&gt;&lt;/div&gt;" style="rounded=1;whiteSpace=wrap;html=1;fontSize=12;glass=0;strokeWidth=1;shadow=0;" parent="WIyWlLk6GJQsqaUBKTNV-1" vertex="1">
          <mxGeometry x="4618.08" y="150" width="172.72" height="80" as="geometry" />
        </mxCell>
        <mxCell id="nM7WRYUH7kIRdtRXSgoU-265" value="" style="edgeStyle=orthogonalEdgeStyle;rounded=0;orthogonalLoop=1;jettySize=auto;html=1;entryX=0.5;entryY=0;entryDx=0;entryDy=0;" parent="WIyWlLk6GJQsqaUBKTNV-1" source="nM7WRYUH7kIRdtRXSgoU-266" target="nM7WRYUH7kIRdtRXSgoU-271" edge="1">
          <mxGeometry relative="1" as="geometry">
            <mxPoint x="4709.44" y="415.34999999999957" as="targetPoint" />
          </mxGeometry>
        </mxCell>
        <mxCell id="nM7WRYUH7kIRdtRXSgoU-266" value="&lt;div&gt;&lt;b&gt;SellingCostController&lt;/b&gt;&lt;/div&gt;&lt;div&gt;&lt;b&gt;&lt;br&gt;&lt;/b&gt;&lt;/div&gt;Se consulta en Redis por un valor existente" style="shape=parallelogram;perimeter=parallelogramPerimeter;whiteSpace=wrap;html=1;fixedSize=1;" parent="WIyWlLk6GJQsqaUBKTNV-1" vertex="1">
          <mxGeometry x="4619.4400000000005" y="290.35" width="180" height="70" as="geometry" />
        </mxCell>
        <mxCell id="nM7WRYUH7kIRdtRXSgoU-267" value="" style="edgeStyle=orthogonalEdgeStyle;rounded=0;orthogonalLoop=1;jettySize=auto;html=1;" parent="WIyWlLk6GJQsqaUBKTNV-1" source="nM7WRYUH7kIRdtRXSgoU-271" target="nM7WRYUH7kIRdtRXSgoU-278" edge="1">
          <mxGeometry relative="1" as="geometry">
            <mxPoint x="4549.4400000000005" y="630" as="targetPoint" />
            <Array as="points">
              <mxPoint x="4549.4400000000005" y="512" />
            </Array>
          </mxGeometry>
        </mxCell>
        <mxCell id="nM7WRYUH7kIRdtRXSgoU-268" value="NO" style="edgeLabel;html=1;align=center;verticalAlign=middle;resizable=0;points=[];" parent="nM7WRYUH7kIRdtRXSgoU-267" vertex="1" connectable="0">
          <mxGeometry x="0.2668" y="5" relative="1" as="geometry">
            <mxPoint x="-5" as="offset" />
          </mxGeometry>
        </mxCell>
        <mxCell id="nM7WRYUH7kIRdtRXSgoU-269" value="" style="edgeStyle=orthogonalEdgeStyle;rounded=0;orthogonalLoop=1;jettySize=auto;html=1;entryX=0.5;entryY=0;entryDx=0;entryDy=0;" parent="WIyWlLk6GJQsqaUBKTNV-1" source="nM7WRYUH7kIRdtRXSgoU-271" target="nM7WRYUH7kIRdtRXSgoU-276" edge="1">
          <mxGeometry relative="1" as="geometry">
            <mxPoint x="4850" y="860" as="targetPoint" />
          </mxGeometry>
        </mxCell>
        <mxCell id="nM7WRYUH7kIRdtRXSgoU-270" value="SI" style="edgeLabel;html=1;align=center;verticalAlign=middle;resizable=0;points=[];" parent="nM7WRYUH7kIRdtRXSgoU-269" vertex="1" connectable="0">
          <mxGeometry x="0.0506" y="-1" relative="1" as="geometry">
            <mxPoint as="offset" />
          </mxGeometry>
        </mxCell>
        <mxCell id="nM7WRYUH7kIRdtRXSgoU-271" value="Â¿EncontrÃ³ un valor?" style="rhombus;whiteSpace=wrap;html=1;" parent="WIyWlLk6GJQsqaUBKTNV-1" vertex="1">
          <mxGeometry x="4639.4400000000005" y="450.35" width="140" height="122.5" as="geometry" />
        </mxCell>
        <mxCell id="nM7WRYUH7kIRdtRXSgoU-303" style="edgeStyle=orthogonalEdgeStyle;rounded=0;orthogonalLoop=1;jettySize=auto;html=1;" parent="WIyWlLk6GJQsqaUBKTNV-1" source="nM7WRYUH7kIRdtRXSgoU-273" target="nM7WRYUH7kIRdtRXSgoU-302" edge="1">
          <mxGeometry relative="1" as="geometry" />
        </mxCell>
        <mxCell id="nM7WRYUH7kIRdtRXSgoU-273" value="&lt;b&gt;selling_points_db&lt;/b&gt;&lt;div&gt;&lt;b&gt;(sellingCosts)&lt;/b&gt;&lt;/div&gt;" style="shape=cylinder3;whiteSpace=wrap;html=1;boundedLbl=1;backgroundOutline=1;size=15;" parent="WIyWlLk6GJQsqaUBKTNV-1" vertex="1">
          <mxGeometry x="4494.4400000000005" y="724" width="120" height="105" as="geometry" />
        </mxCell>
        <mxCell id="nM7WRYUH7kIRdtRXSgoU-276" value="&lt;b&gt;SellingCostsController&lt;/b&gt;&lt;div&gt;&lt;b&gt;&lt;br&gt;&lt;/b&gt;&lt;/div&gt;&lt;div&gt;Se devuelve un Ok con los valores al front&lt;/div&gt;" style="ellipse;whiteSpace=wrap;html=1;" parent="WIyWlLk6GJQsqaUBKTNV-1" vertex="1">
          <mxGeometry x="4790.8" y="635" width="150" height="151.25" as="geometry" />
        </mxCell>
        <mxCell id="nM7WRYUH7kIRdtRXSgoU-277" value="" style="edgeStyle=orthogonalEdgeStyle;rounded=0;orthogonalLoop=1;jettySize=auto;html=1;" parent="WIyWlLk6GJQsqaUBKTNV-1" source="nM7WRYUH7kIRdtRXSgoU-278" target="nM7WRYUH7kIRdtRXSgoU-273" edge="1">
          <mxGeometry relative="1" as="geometry" />
        </mxCell>
        <mxCell id="nM7WRYUH7kIRdtRXSgoU-278" value="&lt;div&gt;&lt;b&gt;SellingCostsService&lt;/b&gt;&lt;/div&gt;&lt;div&gt;&lt;br&gt;&lt;/div&gt;Se consulta&lt;span style=&quot;background-color: transparent; color: light-dark(rgb(0, 0, 0), rgb(255, 255, 255));&quot;&gt;&amp;nbsp;en la BD&lt;/span&gt;" style="shape=parallelogram;perimeter=parallelogramPerimeter;whiteSpace=wrap;html=1;fixedSize=1;" parent="WIyWlLk6GJQsqaUBKTNV-1" vertex="1">
          <mxGeometry x="4464.4400000000005" y="600" width="180" height="70" as="geometry" />
        </mxCell>
        <mxCell id="nM7WRYUH7kIRdtRXSgoU-279" value="" style="edgeStyle=orthogonalEdgeStyle;rounded=0;orthogonalLoop=1;jettySize=auto;html=1;" parent="WIyWlLk6GJQsqaUBKTNV-1" source="nM7WRYUH7kIRdtRXSgoU-280" target="nM7WRYUH7kIRdtRXSgoU-281" edge="1">
          <mxGeometry relative="1" as="geometry" />
        </mxCell>
        <mxCell id="nM7WRYUH7kIRdtRXSgoU-280" value="&lt;div&gt;&lt;b style=&quot;background-color: transparent; color: light-dark(rgb(0, 0, 0), rgb(255, 255, 255));&quot;&gt;Redis&lt;/b&gt;&lt;/div&gt;Se actualiza el&lt;div&gt;&amp;nbsp;valor en Redis&lt;/div&gt;" style="shape=parallelogram;perimeter=parallelogramPerimeter;whiteSpace=wrap;html=1;fixedSize=1;" parent="WIyWlLk6GJQsqaUBKTNV-1" vertex="1">
          <mxGeometry x="4464.4400000000005" y="1295.6599999999999" width="180" height="70" as="geometry" />
        </mxCell>
        <mxCell id="nM7WRYUH7kIRdtRXSgoU-281" value="&lt;b&gt;SellingCostsControl&lt;/b&gt;&lt;div&gt;&lt;b&gt;&lt;br&gt;&lt;/b&gt;&lt;/div&gt;&lt;div&gt;Se devuelve al front un Ok con lo hallado.&lt;/div&gt;" style="ellipse;whiteSpace=wrap;html=1;" parent="WIyWlLk6GJQsqaUBKTNV-1" vertex="1">
          <mxGeometry x="4476.88" y="1455.6599999999999" width="155.12" height="140" as="geometry" />
        </mxCell>
        <mxCell id="nM7WRYUH7kIRdtRXSgoU-285" value="" style="edgeStyle=orthogonalEdgeStyle;rounded=0;orthogonalLoop=1;jettySize=auto;html=1;" parent="WIyWlLk6GJQsqaUBKTNV-1" source="nM7WRYUH7kIRdtRXSgoU-282" target="nM7WRYUH7kIRdtRXSgoU-284" edge="1">
          <mxGeometry relative="1" as="geometry" />
        </mxCell>
        <mxCell id="nM7WRYUH7kIRdtRXSgoU-282" value="&lt;b&gt;selling_points_db&lt;/b&gt;&lt;div&gt;&lt;b&gt;(sellingCosts)&lt;/b&gt;&lt;/div&gt;" style="shape=cylinder3;whiteSpace=wrap;html=1;boundedLbl=1;backgroundOutline=1;size=15;" parent="WIyWlLk6GJQsqaUBKTNV-1" vertex="1">
          <mxGeometry x="3275.5" y="1085" width="120" height="105" as="geometry" />
        </mxCell>
        <mxCell id="nM7WRYUH7kIRdtRXSgoU-284" value="&lt;b&gt;SellingCostController&lt;/b&gt;&lt;div&gt;&lt;br&gt;&lt;/div&gt;&lt;div&gt;Se devuelve al front con estado Created&lt;/div&gt;" style="ellipse;whiteSpace=wrap;html=1;" parent="WIyWlLk6GJQsqaUBKTNV-1" vertex="1">
          <mxGeometry x="3265.5" y="1268.82" width="140" height="117.5" as="geometry" />
        </mxCell>
        <mxCell id="nM7WRYUH7kIRdtRXSgoU-288" value="" style="edgeStyle=orthogonalEdgeStyle;rounded=0;orthogonalLoop=1;jettySize=auto;html=1;" parent="WIyWlLk6GJQsqaUBKTNV-1" source="nM7WRYUH7kIRdtRXSgoU-286" target="nM7WRYUH7kIRdtRXSgoU-200" edge="1">
          <mxGeometry relative="1" as="geometry" />
        </mxCell>
        <mxCell id="nM7WRYUH7kIRdtRXSgoU-286" value="&lt;b&gt;selling_points_db&lt;/b&gt;&lt;div&gt;&lt;b&gt;(sellingPoints)&lt;/b&gt;&lt;/div&gt;" style="shape=cylinder3;whiteSpace=wrap;html=1;boundedLbl=1;backgroundOutline=1;size=15;" parent="WIyWlLk6GJQsqaUBKTNV-1" vertex="1">
          <mxGeometry x="4149.4400000000005" y="420" width="120" height="105" as="geometry" />
        </mxCell>
        <mxCell id="nM7WRYUH7kIRdtRXSgoU-295" style="edgeStyle=orthogonalEdgeStyle;rounded=0;orthogonalLoop=1;jettySize=auto;html=1;entryX=0.5;entryY=0;entryDx=0;entryDy=0;" parent="WIyWlLk6GJQsqaUBKTNV-1" source="nM7WRYUH7kIRdtRXSgoU-293" target="nM7WRYUH7kIRdtRXSgoU-216" edge="1">
          <mxGeometry relative="1" as="geometry" />
        </mxCell>
        <mxCell id="nM7WRYUH7kIRdtRXSgoU-296" value="NO" style="edgeLabel;html=1;align=center;verticalAlign=middle;resizable=0;points=[];" parent="nM7WRYUH7kIRdtRXSgoU-295" vertex="1" connectable="0">
          <mxGeometry x="0.0004" y="2" relative="1" as="geometry">
            <mxPoint y="-1" as="offset" />
          </mxGeometry>
        </mxCell>
        <mxCell id="nM7WRYUH7kIRdtRXSgoU-298" value="" style="edgeStyle=orthogonalEdgeStyle;rounded=0;orthogonalLoop=1;jettySize=auto;html=1;" parent="WIyWlLk6GJQsqaUBKTNV-1" source="nM7WRYUH7kIRdtRXSgoU-293" target="nM7WRYUH7kIRdtRXSgoU-297" edge="1">
          <mxGeometry relative="1" as="geometry" />
        </mxCell>
        <mxCell id="nM7WRYUH7kIRdtRXSgoU-293" value="Â¿Encuentra al en Redis?" style="rhombus;whiteSpace=wrap;html=1;" parent="WIyWlLk6GJQsqaUBKTNV-1" vertex="1">
          <mxGeometry x="3959.4399999999996" y="1176.32" width="177.28" height="150" as="geometry" />
        </mxCell>
        <mxCell id="nM7WRYUH7kIRdtRXSgoU-299" style="edgeStyle=orthogonalEdgeStyle;rounded=0;orthogonalLoop=1;jettySize=auto;html=1;entryX=1;entryY=0.5;entryDx=0;entryDy=0;" parent="WIyWlLk6GJQsqaUBKTNV-1" source="nM7WRYUH7kIRdtRXSgoU-297" target="nM7WRYUH7kIRdtRXSgoU-216" edge="1">
          <mxGeometry relative="1" as="geometry">
            <Array as="points">
              <mxPoint x="4305" y="1540" />
            </Array>
          </mxGeometry>
        </mxCell>
        <mxCell id="nM7WRYUH7kIRdtRXSgoU-297" value="Se elimina de Redis" style="shape=parallelogram;perimeter=parallelogramPerimeter;whiteSpace=wrap;html=1;fixedSize=1;" parent="WIyWlLk6GJQsqaUBKTNV-1" vertex="1">
          <mxGeometry x="4224" y="1206.98" width="161.36" height="88.68" as="geometry" />
        </mxCell>
        <mxCell id="nM7WRYUH7kIRdtRXSgoU-305" value="" style="edgeStyle=orthogonalEdgeStyle;rounded=0;orthogonalLoop=1;jettySize=auto;html=1;" parent="WIyWlLk6GJQsqaUBKTNV-1" source="nM7WRYUH7kIRdtRXSgoU-302" target="nM7WRYUH7kIRdtRXSgoU-304" edge="1">
          <mxGeometry relative="1" as="geometry" />
        </mxCell>
        <mxCell id="nM7WRYUH7kIRdtRXSgoU-302" value="&lt;div&gt;&lt;b&gt;SellingCostsController&lt;/b&gt;&lt;/div&gt;&lt;div&gt;&lt;b&gt;&lt;br&gt;&lt;/b&gt;&lt;/div&gt;&lt;div&gt;Guarda los reultados&amp;nbsp;&lt;/div&gt;&lt;div&gt;en un map&lt;/div&gt;" style="shape=parallelogram;perimeter=parallelogramPerimeter;whiteSpace=wrap;html=1;fixedSize=1;" parent="WIyWlLk6GJQsqaUBKTNV-1" vertex="1">
          <mxGeometry x="4464.4400000000005" y="898.4699999999999" width="180" height="70" as="geometry" />
        </mxCell>
        <mxCell id="nM7WRYUH7kIRdtRXSgoU-307" style="edgeStyle=orthogonalEdgeStyle;rounded=0;orthogonalLoop=1;jettySize=auto;html=1;" parent="WIyWlLk6GJQsqaUBKTNV-1" source="nM7WRYUH7kIRdtRXSgoU-304" target="nM7WRYUH7kIRdtRXSgoU-306" edge="1">
          <mxGeometry relative="1" as="geometry" />
        </mxCell>
        <mxCell id="nM7WRYUH7kIRdtRXSgoU-308" value="NO" style="edgeLabel;html=1;align=center;verticalAlign=middle;resizable=0;points=[];" parent="nM7WRYUH7kIRdtRXSgoU-307" vertex="1" connectable="0">
          <mxGeometry x="-0.1357" y="4" relative="1" as="geometry">
            <mxPoint as="offset" />
          </mxGeometry>
        </mxCell>
        <mxCell id="nM7WRYUH7kIRdtRXSgoU-309" style="edgeStyle=orthogonalEdgeStyle;rounded=0;orthogonalLoop=1;jettySize=auto;html=1;" parent="WIyWlLk6GJQsqaUBKTNV-1" source="nM7WRYUH7kIRdtRXSgoU-304" target="nM7WRYUH7kIRdtRXSgoU-280" edge="1">
          <mxGeometry relative="1" as="geometry" />
        </mxCell>
        <mxCell id="nM7WRYUH7kIRdtRXSgoU-310" value="SI" style="edgeLabel;html=1;align=center;verticalAlign=middle;resizable=0;points=[];" parent="nM7WRYUH7kIRdtRXSgoU-309" vertex="1" connectable="0">
          <mxGeometry x="-0.1958" relative="1" as="geometry">
            <mxPoint y="1" as="offset" />
          </mxGeometry>
        </mxCell>
        <mxCell id="nM7WRYUH7kIRdtRXSgoU-304" value="Â¿Tiene algo?" style="rhombus;whiteSpace=wrap;html=1;" parent="WIyWlLk6GJQsqaUBKTNV-1" vertex="1">
          <mxGeometry x="4482.05" y="1033.47" width="144.78" height="126.53" as="geometry" />
        </mxCell>
        <mxCell id="nM7WRYUH7kIRdtRXSgoU-306" value="&lt;b&gt;SellingCostsControl&lt;/b&gt;&lt;div&gt;&lt;b&gt;&lt;br&gt;&lt;/b&gt;&lt;/div&gt;&lt;div&gt;Se devuelve al front&amp;nbsp;&lt;/div&gt;&lt;div&gt;un Not found&lt;/div&gt;" style="ellipse;whiteSpace=wrap;html=1;" parent="WIyWlLk6GJQsqaUBKTNV-1" vertex="1">
          <mxGeometry x="4714.000000000001" y="1231.3199999999997" width="155.12" height="140" as="geometry" />
        </mxCell>
        <mxCell id="nM7WRYUH7kIRdtRXSgoU-315" value="SI" style="edgeStyle=orthogonalEdgeStyle;rounded=0;orthogonalLoop=1;jettySize=auto;html=1;" parent="WIyWlLk6GJQsqaUBKTNV-1" source="nM7WRYUH7kIRdtRXSgoU-313" target="nM7WRYUH7kIRdtRXSgoU-241" edge="1">
          <mxGeometry relative="1" as="geometry" />
        </mxCell>
        <mxCell id="nM7WRYUH7kIRdtRXSgoU-317" value="" style="edgeStyle=orthogonalEdgeStyle;rounded=0;orthogonalLoop=1;jettySize=auto;html=1;" parent="WIyWlLk6GJQsqaUBKTNV-1" source="nM7WRYUH7kIRdtRXSgoU-313" target="nM7WRYUH7kIRdtRXSgoU-316" edge="1">
          <mxGeometry relative="1" as="geometry" />
        </mxCell>
        <mxCell id="nM7WRYUH7kIRdtRXSgoU-318" value="NO" style="edgeLabel;html=1;align=center;verticalAlign=middle;resizable=0;points=[];" parent="nM7WRYUH7kIRdtRXSgoU-317" vertex="1" connectable="0">
          <mxGeometry x="-0.3833" relative="1" as="geometry">
            <mxPoint as="offset" />
          </mxGeometry>
        </mxCell>
        <mxCell id="nM7WRYUH7kIRdtRXSgoU-313" value="Â¿Se hallÃ³ un resultado?" style="rhombus;whiteSpace=wrap;html=1;" parent="WIyWlLk6GJQsqaUBKTNV-1" vertex="1">
          <mxGeometry x="4996.72" y="1019" width="125.44" height="120" as="geometry" />
        </mxCell>
        <mxCell id="nM7WRYUH7kIRdtRXSgoU-316" value="Se devuelve un&amp;nbsp;&lt;div&gt;not found al front.&lt;/div&gt;" style="ellipse;whiteSpace=wrap;html=1;" parent="WIyWlLk6GJQsqaUBKTNV-1" vertex="1">
          <mxGeometry x="5214" y="1015.5100000000002" width="140" height="126.98" as="geometry" />
        </mxCell>
        <mxCell id="nM7WRYUH7kIRdtRXSgoU-321" value="" style="edgeStyle=orthogonalEdgeStyle;rounded=0;orthogonalLoop=1;jettySize=auto;html=1;" parent="WIyWlLk6GJQsqaUBKTNV-1" source="nM7WRYUH7kIRdtRXSgoU-322" target="nM7WRYUH7kIRdtRXSgoU-324" edge="1">
          <mxGeometry relative="1" as="geometry" />
        </mxCell>
        <mxCell id="nM7WRYUH7kIRdtRXSgoU-322" value="Inicio&lt;div&gt;Consulta por una acreditaciÃ³n&lt;/div&gt;" style="ellipse;whiteSpace=wrap;html=1;" parent="WIyWlLk6GJQsqaUBKTNV-1" vertex="1">
          <mxGeometry x="6019" y="-41" width="120" height="80" as="geometry" />
        </mxCell>
        <mxCell id="nM7WRYUH7kIRdtRXSgoU-342" value="" style="edgeStyle=orthogonalEdgeStyle;rounded=0;orthogonalLoop=1;jettySize=auto;html=1;" parent="WIyWlLk6GJQsqaUBKTNV-1" source="nM7WRYUH7kIRdtRXSgoU-324" target="nM7WRYUH7kIRdtRXSgoU-326" edge="1">
          <mxGeometry relative="1" as="geometry" />
        </mxCell>
        <mxCell id="nM7WRYUH7kIRdtRXSgoU-324" value="&lt;div&gt;&lt;b&gt;AccreditationsController&lt;/b&gt;&lt;/div&gt;&lt;div&gt;&lt;br&gt;&lt;/div&gt;Solicitud de consulta de una acreditaciÃ³n&lt;div&gt;(&lt;span style=&quot;background-color: rgb(212, 212, 212); font-family: Consolas; font-size: 10pt; white-space: pre; color: light-dark(rgb(0, 0, 0), rgb(255, 255, 255));&quot;&gt;&lt;span style=&quot;background-color:#ffffff;padding:0px 0px 0px 2px;&quot;&gt;&lt;span style=&quot;font-size: 10pt;&quot;&gt;getAccreditation&lt;/span&gt;&lt;/span&gt;)&lt;/span&gt;&lt;/div&gt;" style="rounded=1;whiteSpace=wrap;html=1;fontSize=12;glass=0;strokeWidth=1;shadow=0;" parent="WIyWlLk6GJQsqaUBKTNV-1" vertex="1">
          <mxGeometry x="5984" y="79.35" width="190" height="80" as="geometry" />
        </mxCell>
        <mxCell id="nM7WRYUH7kIRdtRXSgoU-344" value="" style="edgeStyle=orthogonalEdgeStyle;rounded=0;orthogonalLoop=1;jettySize=auto;html=1;" parent="WIyWlLk6GJQsqaUBKTNV-1" source="nM7WRYUH7kIRdtRXSgoU-326" target="nM7WRYUH7kIRdtRXSgoU-343" edge="1">
          <mxGeometry relative="1" as="geometry" />
        </mxCell>
        <mxCell id="nM7WRYUH7kIRdtRXSgoU-326" value="&lt;div&gt;&lt;b&gt;AccreditationsService&lt;/b&gt;&lt;/div&gt;&lt;div&gt;&lt;br&gt;&lt;/div&gt;Se consulta en Mongo&amp;nbsp;&lt;div&gt;si hay una acreditaciÃ³n para ese id&lt;/div&gt;" style="shape=parallelogram;perimeter=parallelogramPerimeter;whiteSpace=wrap;html=1;fixedSize=1;" parent="WIyWlLk6GJQsqaUBKTNV-1" vertex="1">
          <mxGeometry x="5949" y="190.35000000000002" width="260" height="70" as="geometry" />
        </mxCell>
        <mxCell id="nM7WRYUH7kIRdtRXSgoU-329" value="" style="edgeStyle=orthogonalEdgeStyle;rounded=0;orthogonalLoop=1;jettySize=auto;html=1;" parent="WIyWlLk6GJQsqaUBKTNV-1" source="nM7WRYUH7kIRdtRXSgoU-331" target="nM7WRYUH7kIRdtRXSgoU-334" edge="1">
          <mxGeometry relative="1" as="geometry">
            <mxPoint x="6219" y="867.5" as="targetPoint" />
            <Array as="points">
              <mxPoint x="6219" y="511.5" />
            </Array>
          </mxGeometry>
        </mxCell>
        <mxCell id="nM7WRYUH7kIRdtRXSgoU-330" value="SI" style="edgeLabel;html=1;align=center;verticalAlign=middle;resizable=0;points=[];" parent="nM7WRYUH7kIRdtRXSgoU-329" vertex="1" connectable="0">
          <mxGeometry x="0.0506" y="-1" relative="1" as="geometry">
            <mxPoint as="offset" />
          </mxGeometry>
        </mxCell>
        <mxCell id="nM7WRYUH7kIRdtRXSgoU-348" value="NO" style="edgeStyle=orthogonalEdgeStyle;rounded=0;orthogonalLoop=1;jettySize=auto;html=1;" parent="WIyWlLk6GJQsqaUBKTNV-1" source="nM7WRYUH7kIRdtRXSgoU-331" target="nM7WRYUH7kIRdtRXSgoU-347" edge="1">
          <mxGeometry relative="1" as="geometry">
            <Array as="points">
              <mxPoint x="5921" y="511" />
            </Array>
          </mxGeometry>
        </mxCell>
        <mxCell id="nM7WRYUH7kIRdtRXSgoU-331" value="Â¿Hay resultado&lt;span style=&quot;background-color: transparent; color: light-dark(rgb(0, 0, 0), rgb(255, 255, 255));&quot;&gt;?&lt;/span&gt;" style="rhombus;whiteSpace=wrap;html=1;" parent="WIyWlLk6GJQsqaUBKTNV-1" vertex="1">
          <mxGeometry x="6009" y="450" width="140" height="122.5" as="geometry" />
        </mxCell>
        <mxCell id="nM7WRYUH7kIRdtRXSgoU-334" value="&lt;b&gt;AccreditationsController&lt;/b&gt;&lt;div&gt;&lt;b&gt;&lt;br&gt;&lt;/b&gt;&lt;/div&gt;&lt;div&gt;Se devuelve un ok con el valor encontrado&lt;span style=&quot;background-color: transparent; color: light-dark(rgb(0, 0, 0), rgb(255, 255, 255));&quot;&gt;&amp;nbsp;al front.&lt;/span&gt;&lt;/div&gt;" style="ellipse;whiteSpace=wrap;html=1;" parent="WIyWlLk6GJQsqaUBKTNV-1" vertex="1">
          <mxGeometry x="6119" y="633.45" width="195" height="141.18" as="geometry" />
        </mxCell>
        <mxCell id="nM7WRYUH7kIRdtRXSgoU-340" value="&lt;h1&gt;Acreditaciones&lt;/h1&gt;" style="text;html=1;align=center;verticalAlign=middle;whiteSpace=wrap;rounded=0;" parent="WIyWlLk6GJQsqaUBKTNV-1" vertex="1">
          <mxGeometry x="6314" y="-150" width="200" height="30" as="geometry" />
        </mxCell>
        <mxCell id="nM7WRYUH7kIRdtRXSgoU-345" value="" style="edgeStyle=orthogonalEdgeStyle;rounded=0;orthogonalLoop=1;jettySize=auto;html=1;" parent="WIyWlLk6GJQsqaUBKTNV-1" source="nM7WRYUH7kIRdtRXSgoU-343" target="nM7WRYUH7kIRdtRXSgoU-331" edge="1">
          <mxGeometry relative="1" as="geometry" />
        </mxCell>
        <mxCell id="nM7WRYUH7kIRdtRXSgoU-343" value="&lt;b&gt;selling_points_db&lt;/b&gt;&lt;div&gt;(accreditations)&lt;/div&gt;" style="shape=cylinder3;whiteSpace=wrap;html=1;boundedLbl=1;backgroundOutline=1;size=15;" parent="WIyWlLk6GJQsqaUBKTNV-1" vertex="1">
          <mxGeometry x="6014" y="308.17" width="130" height="80.65" as="geometry" />
        </mxCell>
        <mxCell id="nM7WRYUH7kIRdtRXSgoU-347" value="&lt;b&gt;AccreditationsController&lt;/b&gt;&lt;div&gt;&lt;b&gt;&lt;br&gt;&lt;/b&gt;&lt;/div&gt;&lt;div&gt;Se devuelve un Not found&lt;span style=&quot;background-color: transparent; color: light-dark(rgb(0, 0, 0), rgb(255, 255, 255));&quot;&gt;&amp;nbsp;al front.&lt;/span&gt;&lt;/div&gt;" style="ellipse;whiteSpace=wrap;html=1;" parent="WIyWlLk6GJQsqaUBKTNV-1" vertex="1">
          <mxGeometry x="5824" y="633.45" width="195" height="141.18" as="geometry" />
        </mxCell>
        <mxCell id="nM7WRYUH7kIRdtRXSgoU-349" value="" style="edgeStyle=orthogonalEdgeStyle;rounded=0;orthogonalLoop=1;jettySize=auto;html=1;" parent="WIyWlLk6GJQsqaUBKTNV-1" source="nM7WRYUH7kIRdtRXSgoU-350" target="nM7WRYUH7kIRdtRXSgoU-352" edge="1">
          <mxGeometry relative="1" as="geometry" />
        </mxCell>
        <mxCell id="nM7WRYUH7kIRdtRXSgoU-350" value="Inicio&lt;div&gt;CreaciÃ³n de una nueva acreditaciÃ³n&lt;/div&gt;" style="ellipse;whiteSpace=wrap;html=1;" parent="WIyWlLk6GJQsqaUBKTNV-1" vertex="1">
          <mxGeometry x="6679" y="-40" width="120" height="80" as="geometry" />
        </mxCell>
        <mxCell id="nM7WRYUH7kIRdtRXSgoU-351" value="" style="edgeStyle=orthogonalEdgeStyle;rounded=0;orthogonalLoop=1;jettySize=auto;html=1;" parent="WIyWlLk6GJQsqaUBKTNV-1" source="nM7WRYUH7kIRdtRXSgoU-352" target="nM7WRYUH7kIRdtRXSgoU-354" edge="1">
          <mxGeometry relative="1" as="geometry" />
        </mxCell>
        <mxCell id="nM7WRYUH7kIRdtRXSgoU-352" value="&lt;div&gt;&lt;b&gt;AccreditationsController&lt;/b&gt;&lt;/div&gt;&lt;div&gt;&lt;br&gt;&lt;/div&gt;Solicitud de consulta de una acreditaciÃ³n&lt;div&gt;(&lt;span style=&quot;font-family: Consolas; font-size: 10pt; white-space: pre; color: light-dark(rgb(0, 0, 0), rgb(255, 255, 255));&quot;&gt;&lt;span style=&quot;padding: 0px 0px 0px 2px;&quot;&gt;&lt;span style=&quot;font-size: 10pt;&quot;&gt;&lt;span&gt;saveAccreditation&lt;/span&gt;&lt;/span&gt;&lt;/span&gt;)&lt;/span&gt;&lt;/div&gt;" style="rounded=1;whiteSpace=wrap;html=1;fontSize=12;glass=0;strokeWidth=1;shadow=0;" parent="WIyWlLk6GJQsqaUBKTNV-1" vertex="1">
          <mxGeometry x="6644" y="80.35" width="190" height="80" as="geometry" />
        </mxCell>
        <mxCell id="nM7WRYUH7kIRdtRXSgoU-353" value="" style="edgeStyle=orthogonalEdgeStyle;rounded=0;orthogonalLoop=1;jettySize=auto;html=1;" parent="WIyWlLk6GJQsqaUBKTNV-1" source="nM7WRYUH7kIRdtRXSgoU-354" target="nM7WRYUH7kIRdtRXSgoU-358" edge="1">
          <mxGeometry relative="1" as="geometry">
            <mxPoint x="6739" y="423.5399999999995" as="targetPoint" />
          </mxGeometry>
        </mxCell>
        <mxCell id="nM7WRYUH7kIRdtRXSgoU-354" value="&lt;div&gt;&lt;b&gt;AccreditationsService&lt;/b&gt;&lt;/div&gt;&lt;div&gt;&lt;br&gt;&lt;/div&gt;Se consulta en Redis si hay&amp;nbsp;&lt;div&gt;un punto de venta para ese id en cache&lt;/div&gt;" style="shape=parallelogram;perimeter=parallelogramPerimeter;whiteSpace=wrap;html=1;fixedSize=1;" parent="WIyWlLk6GJQsqaUBKTNV-1" vertex="1">
          <mxGeometry x="6609" y="191.35000000000002" width="260" height="98.65" as="geometry" />
        </mxCell>
        <mxCell id="nM7WRYUH7kIRdtRXSgoU-357" value="NO" style="edgeStyle=orthogonalEdgeStyle;rounded=0;orthogonalLoop=1;jettySize=auto;html=1;" parent="WIyWlLk6GJQsqaUBKTNV-1" source="nM7WRYUH7kIRdtRXSgoU-358" target="nM7WRYUH7kIRdtRXSgoU-362" edge="1">
          <mxGeometry relative="1" as="geometry">
            <Array as="points">
              <mxPoint x="6581" y="421.35" />
            </Array>
          </mxGeometry>
        </mxCell>
        <mxCell id="nM7WRYUH7kIRdtRXSgoU-365" style="edgeStyle=orthogonalEdgeStyle;rounded=0;orthogonalLoop=1;jettySize=auto;html=1;entryX=0.5;entryY=0;entryDx=0;entryDy=0;" parent="WIyWlLk6GJQsqaUBKTNV-1" source="nM7WRYUH7kIRdtRXSgoU-358" target="nM7WRYUH7kIRdtRXSgoU-364" edge="1">
          <mxGeometry relative="1" as="geometry" />
        </mxCell>
        <mxCell id="nM7WRYUH7kIRdtRXSgoU-358" value="Â¿Hay resultado&lt;span style=&quot;background-color: transparent; color: light-dark(rgb(0, 0, 0), rgb(255, 255, 255));&quot;&gt;?&lt;/span&gt;" style="rhombus;whiteSpace=wrap;html=1;" parent="WIyWlLk6GJQsqaUBKTNV-1" vertex="1">
          <mxGeometry x="6669" y="360.35" width="140" height="122.5" as="geometry" />
        </mxCell>
        <mxCell id="nM7WRYUH7kIRdtRXSgoU-362" value="&lt;b&gt;AccreditationsController&lt;/b&gt;&lt;div&gt;&lt;b&gt;&lt;br&gt;&lt;/b&gt;&lt;/div&gt;&lt;div&gt;Se devuelve un Not found&lt;span style=&quot;background-color: transparent; color: light-dark(rgb(0, 0, 0), rgb(255, 255, 255));&quot;&gt;&amp;nbsp;al front.&lt;/span&gt;&lt;/div&gt;" style="ellipse;whiteSpace=wrap;html=1;" parent="WIyWlLk6GJQsqaUBKTNV-1" vertex="1">
          <mxGeometry x="6484" y="543.8000000000001" width="195" height="141.18" as="geometry" />
        </mxCell>
        <mxCell id="nM7WRYUH7kIRdtRXSgoU-368" value="" style="edgeStyle=orthogonalEdgeStyle;rounded=0;orthogonalLoop=1;jettySize=auto;html=1;" parent="WIyWlLk6GJQsqaUBKTNV-1" source="nM7WRYUH7kIRdtRXSgoU-363" target="nM7WRYUH7kIRdtRXSgoU-367" edge="1">
          <mxGeometry relative="1" as="geometry" />
        </mxCell>
        <mxCell id="nM7WRYUH7kIRdtRXSgoU-363" value="&lt;b&gt;selling_points_db&lt;/b&gt;&lt;div&gt;(accreditations)&lt;/div&gt;" style="shape=cylinder3;whiteSpace=wrap;html=1;boundedLbl=1;backgroundOutline=1;size=15;" parent="WIyWlLk6GJQsqaUBKTNV-1" vertex="1">
          <mxGeometry x="6869" y="610.0000000000001" width="170" height="93.01" as="geometry" />
        </mxCell>
        <mxCell id="nM7WRYUH7kIRdtRXSgoU-366" value="" style="edgeStyle=orthogonalEdgeStyle;rounded=0;orthogonalLoop=1;jettySize=auto;html=1;" parent="WIyWlLk6GJQsqaUBKTNV-1" source="nM7WRYUH7kIRdtRXSgoU-364" target="nM7WRYUH7kIRdtRXSgoU-363" edge="1">
          <mxGeometry relative="1" as="geometry" />
        </mxCell>
        <mxCell id="nM7WRYUH7kIRdtRXSgoU-364" value="&lt;div&gt;&lt;b&gt;AccreditationsService&lt;/b&gt;&lt;/div&gt;&lt;div&gt;&lt;br&gt;&lt;/div&gt;Se guarda en Mongo la acreditaciÃ³n&amp;nbsp;&lt;div&gt;con los valores indicados&lt;/div&gt;" style="shape=parallelogram;perimeter=parallelogramPerimeter;whiteSpace=wrap;html=1;fixedSize=1;" parent="WIyWlLk6GJQsqaUBKTNV-1" vertex="1">
          <mxGeometry x="6834" y="484.35" width="240" height="70.65" as="geometry" />
        </mxCell>
        <mxCell id="nM7WRYUH7kIRdtRXSgoU-367" value="&lt;b&gt;AccreditationsController&lt;/b&gt;&lt;div&gt;&lt;b&gt;&lt;br&gt;&lt;/b&gt;&lt;/div&gt;&lt;div&gt;Se devuelve un Ok con el valor creado&lt;span style=&quot;background-color: transparent; color: light-dark(rgb(0, 0, 0), rgb(255, 255, 255));&quot;&gt;&amp;nbsp;al front.&lt;/span&gt;&lt;/div&gt;" style="ellipse;whiteSpace=wrap;html=1;" parent="WIyWlLk6GJQsqaUBKTNV-1" vertex="1">
          <mxGeometry x="6856.5" y="770" width="195" height="134.37" as="geometry" />
        </mxCell>
        <mxCell id="nM7WRYUH7kIRdtRXSgoU-369" value="Para todos los endpoints de Ã©stos controllers se debe estar necesariamente autenticado, de otra manera devolverÃ­a Unauthorized.&amp;nbsp;&lt;div&gt;De igual manera, para los endpoints de Accreditations se debe tener el rol ADMIN para poder operar.&lt;/div&gt;" style="text;html=1;align=center;verticalAlign=middle;whiteSpace=wrap;rounded=0;" parent="WIyWlLk6GJQsqaUBKTNV-1" vertex="1">
          <mxGeometry x="3836.8" y="-320" width="750" height="90" as="geometry" />
        </mxCell>
        <mxCell id="SR-uzpXWyhXqKQkfDo1B-6" style="edgeStyle=orthogonalEdgeStyle;rounded=0;orthogonalLoop=1;jettySize=auto;html=1;entryX=0.5;entryY=0;entryDx=0;entryDy=0;" edge="1" parent="WIyWlLk6GJQsqaUBKTNV-1" source="SR-uzpXWyhXqKQkfDo1B-0" target="SR-uzpXWyhXqKQkfDo1B-2">
          <mxGeometry relative="1" as="geometry">
            <Array as="points">
              <mxPoint x="3336" y="477" />
            </Array>
          </mxGeometry>
        </mxCell>
        <mxCell id="SR-uzpXWyhXqKQkfDo1B-9" value="SI" style="edgeLabel;html=1;align=center;verticalAlign=middle;resizable=0;points=[];" vertex="1" connectable="0" parent="SR-uzpXWyhXqKQkfDo1B-6">
          <mxGeometry x="-0.2989" y="-2" relative="1" as="geometry">
            <mxPoint as="offset" />
          </mxGeometry>
        </mxCell>
        <mxCell id="SR-uzpXWyhXqKQkfDo1B-14" value="NO" style="edgeStyle=orthogonalEdgeStyle;rounded=0;orthogonalLoop=1;jettySize=auto;html=1;" edge="1" parent="WIyWlLk6GJQsqaUBKTNV-1" source="SR-uzpXWyhXqKQkfDo1B-0" target="SR-uzpXWyhXqKQkfDo1B-10">
          <mxGeometry relative="1" as="geometry">
            <Array as="points">
              <mxPoint x="3660" y="477" />
            </Array>
          </mxGeometry>
        </mxCell>
        <mxCell id="SR-uzpXWyhXqKQkfDo1B-0" value="Â¿Ambos selling points existen?" style="rhombus;whiteSpace=wrap;html=1;" vertex="1" parent="WIyWlLk6GJQsqaUBKTNV-1">
          <mxGeometry x="3440.5" y="424.35" width="113" height="105.65" as="geometry" />
        </mxCell>
        <mxCell id="SR-uzpXWyhXqKQkfDo1B-7" value="" style="edgeStyle=orthogonalEdgeStyle;rounded=0;orthogonalLoop=1;jettySize=auto;html=1;" edge="1" parent="WIyWlLk6GJQsqaUBKTNV-1" source="SR-uzpXWyhXqKQkfDo1B-2" target="SR-uzpXWyhXqKQkfDo1B-4">
          <mxGeometry relative="1" as="geometry" />
        </mxCell>
        <mxCell id="SR-uzpXWyhXqKQkfDo1B-2" value="&lt;div&gt;&lt;b&gt;SellingPointsService&lt;/b&gt;&lt;/div&gt;&lt;div&gt;&lt;br&gt;&lt;/div&gt;Se consulta la base para&amp;nbsp;&lt;div&gt;saber si la combinacion ya existe&lt;/div&gt;" style="shape=parallelogram;perimeter=parallelogramPerimeter;whiteSpace=wrap;html=1;fixedSize=1;" vertex="1" parent="WIyWlLk6GJQsqaUBKTNV-1">
          <mxGeometry x="3230.5" y="596.32" width="210" height="76.55" as="geometry" />
        </mxCell>
        <mxCell id="SR-uzpXWyhXqKQkfDo1B-8" value="" style="edgeStyle=orthogonalEdgeStyle;rounded=0;orthogonalLoop=1;jettySize=auto;html=1;" edge="1" parent="WIyWlLk6GJQsqaUBKTNV-1" source="SR-uzpXWyhXqKQkfDo1B-4" target="SR-uzpXWyhXqKQkfDo1B-5">
          <mxGeometry relative="1" as="geometry" />
        </mxCell>
        <mxCell id="SR-uzpXWyhXqKQkfDo1B-4" value="&lt;b&gt;selling_points_db&lt;/b&gt;&lt;div&gt;&lt;b&gt;(sellingCosts)&lt;/b&gt;&lt;/div&gt;" style="shape=cylinder3;whiteSpace=wrap;html=1;boundedLbl=1;backgroundOutline=1;size=15;" vertex="1" parent="WIyWlLk6GJQsqaUBKTNV-1">
          <mxGeometry x="3275.5" y="724" width="120" height="105" as="geometry" />
        </mxCell>
        <mxCell id="SR-uzpXWyhXqKQkfDo1B-16" value="SI" style="edgeStyle=orthogonalEdgeStyle;rounded=0;orthogonalLoop=1;jettySize=auto;html=1;entryX=0;entryY=0.5;entryDx=0;entryDy=0;" edge="1" parent="WIyWlLk6GJQsqaUBKTNV-1" source="SR-uzpXWyhXqKQkfDo1B-5" target="SR-uzpXWyhXqKQkfDo1B-18">
          <mxGeometry relative="1" as="geometry">
            <mxPoint x="3490" y="938.1999999999998" as="targetPoint" />
          </mxGeometry>
        </mxCell>
        <mxCell id="SR-uzpXWyhXqKQkfDo1B-20" value="NO" style="edgeStyle=orthogonalEdgeStyle;rounded=0;orthogonalLoop=1;jettySize=auto;html=1;" edge="1" parent="WIyWlLk6GJQsqaUBKTNV-1" source="SR-uzpXWyhXqKQkfDo1B-5" target="nM7WRYUH7kIRdtRXSgoU-282">
          <mxGeometry relative="1" as="geometry" />
        </mxCell>
        <mxCell id="SR-uzpXWyhXqKQkfDo1B-5" value="Â¿Ya existe un&lt;div&gt;&amp;nbsp;selling cost para esa combinaciÃ²n?&lt;/div&gt;" style="rhombus;whiteSpace=wrap;html=1;" vertex="1" parent="WIyWlLk6GJQsqaUBKTNV-1">
          <mxGeometry x="3273.25" y="873.2" width="124.5" height="130" as="geometry" />
        </mxCell>
        <mxCell id="SR-uzpXWyhXqKQkfDo1B-13" value="" style="edgeStyle=orthogonalEdgeStyle;rounded=0;orthogonalLoop=1;jettySize=auto;html=1;" edge="1" parent="WIyWlLk6GJQsqaUBKTNV-1" source="SR-uzpXWyhXqKQkfDo1B-10" target="SR-uzpXWyhXqKQkfDo1B-12">
          <mxGeometry relative="1" as="geometry" />
        </mxCell>
        <mxCell id="SR-uzpXWyhXqKQkfDo1B-10" value="&lt;div&gt;&lt;b&gt;SellingPointsService&lt;/b&gt;&lt;/div&gt;&lt;div&gt;&lt;br&gt;&lt;/div&gt;Devuelve al controlador un&amp;nbsp;&lt;span style=&quot;background-color: rgb(255, 255, 255); padding: 0px 0px 0px 2px;&quot;&gt;&lt;span style=&quot;font-family: Consolas; font-size: 10pt; white-space: pre;&quot;&gt;IllegalArgumentException&lt;/span&gt;&lt;/span&gt;" style="shape=parallelogram;perimeter=parallelogramPerimeter;whiteSpace=wrap;html=1;fixedSize=1;" vertex="1" parent="WIyWlLk6GJQsqaUBKTNV-1">
          <mxGeometry x="3540" y="598.59" width="240" height="62.82" as="geometry" />
        </mxCell>
        <mxCell id="SR-uzpXWyhXqKQkfDo1B-12" value="&lt;b&gt;SellingCostController&lt;/b&gt;&lt;div&gt;&lt;br&gt;&lt;/div&gt;&lt;div&gt;Se devuelve al front con estado Not found&lt;/div&gt;" style="ellipse;whiteSpace=wrap;html=1;" vertex="1" parent="WIyWlLk6GJQsqaUBKTNV-1">
          <mxGeometry x="3590" y="717.75" width="140" height="117.5" as="geometry" />
        </mxCell>
        <mxCell id="SR-uzpXWyhXqKQkfDo1B-17" value="" style="edgeStyle=orthogonalEdgeStyle;rounded=0;orthogonalLoop=1;jettySize=auto;html=1;" edge="1" parent="WIyWlLk6GJQsqaUBKTNV-1" source="SR-uzpXWyhXqKQkfDo1B-18" target="SR-uzpXWyhXqKQkfDo1B-19">
          <mxGeometry relative="1" as="geometry" />
        </mxCell>
        <mxCell id="SR-uzpXWyhXqKQkfDo1B-18" value="&lt;div&gt;&lt;b&gt;SellingPointsService&lt;/b&gt;&lt;/div&gt;&lt;div&gt;&lt;br&gt;&lt;/div&gt;Devuelve al controlador un&amp;nbsp;&lt;span style=&quot;background-color:#ffffff;padding:0px 0px 0px 2px;&quot;&gt;&lt;span style=&quot;font-family: Consolas; font-size: 10pt; white-space: pre;&quot;&gt;DuplicateKeyException&lt;/span&gt;&lt;/span&gt;" style="shape=parallelogram;perimeter=parallelogramPerimeter;whiteSpace=wrap;html=1;fixedSize=1;" vertex="1" parent="WIyWlLk6GJQsqaUBKTNV-1">
          <mxGeometry x="3490" y="905.83" width="240" height="62.82" as="geometry" />
        </mxCell>
        <mxCell id="SR-uzpXWyhXqKQkfDo1B-19" value="&lt;b&gt;SellingCostController&lt;/b&gt;&lt;div&gt;&lt;br&gt;&lt;/div&gt;&lt;div&gt;Se devuelve al front con estado Bad Request&lt;/div&gt;" style="ellipse;whiteSpace=wrap;html=1;" vertex="1" parent="WIyWlLk6GJQsqaUBKTNV-1">
          <mxGeometry x="3540" y="1024.99" width="140" height="117.5" as="geometry" />
        </mxCell>
      </root>
    </mxGraphModel>
  </diagram>
</mxfile>
